<svg width="72" height="100" viewBox="0 0 72 100" fill="none" xmlns="http://www.w3.org/2000/svg">
<path d="M36 0C30.5694 0 26.387 4.531 26.387 9.94875C26.387 15.167 26.3504 19.7327 26.3504 19.7327H16.6946C16.5129 19.7327 16.337 19.7528 16.1636 19.7815H13.478V29.1626H58.5219V19.7815H55.8364C55.6629 19.7528 55.4871 19.7327 55.3054 19.7327H45.6497C45.6497 19.7327 45.7595 15.5997 45.7595 9.97925C45.7595 4.76092 41.4307 0 36 0ZM0.599609 9.51542V100H71.4004V9.51542H48.97V16.0706H64.9185V93.4327H7.08769V16.0706H23.03V9.51542H0.599609ZM36 9.63742C37.7792 9.63742 39.2166 11.0691 39.2166 12.8418C39.2166 14.6177 37.7792 16.0522 36 16.0522C34.2209 16.0522 32.7834 14.6176 32.7834 12.8418C32.7834 11.0692 34.2209 9.63742 36 9.63742ZM13.478 35.5225V38.7329H16.6946V35.5225H13.478ZM23.1338 35.5835V38.7939H58.5219V35.5835H23.1338ZM13.478 47.6318V50.8423H16.6946V47.6318H13.478ZM23.1338 47.6928V50.9094H58.5219V47.6928H23.1338ZM13.478 59.7413V62.9517H16.6946V59.7413H13.478ZM23.1338 59.8083V63.0187H58.5219V59.8083H23.1338ZM13.478 71.8567V75.0671H16.6946V71.8567H13.478ZM23.1338 71.9238V75.1343H58.5219V71.9238H23.1338ZM13.478 83.9661V87.1765H16.6946V83.9661H13.478ZM23.1338 84.0332V87.2436H58.5219V84.0332H23.1338Z" fill="black"/>
</svg>
