<svg width="18" height="18" viewBox="0 0 18 18" fill="none" xmlns="http://www.w3.org/2000/svg">
<path d="M0 18V4.23529H4.23529V0H13.7647V8.47059H18V18H10.5882V13.7647H7.41177V18H0ZM1.05882 16.9412H4.23529V13.7647H1.05882V16.9412ZM1.05882 12.7059H4.23529V9.52941H1.05882V12.7059ZM1.05882 8.47059H4.23529V5.29412H1.05882V8.47059ZM5.29412 12.7059H8.47059V9.52941H5.29412V12.7059ZM5.29412 8.47059H8.47059V5.29412H5.29412V8.47059ZM5.29412 4.23529H8.47059V1.05882H5.29412V4.23529ZM9.52941 12.7059H12.7059V9.52941H9.52941V12.7059ZM9.52941 8.47059H12.7059V5.29412H9.52941V8.47059ZM9.52941 4.23529H12.7059V1.05882H9.52941V4.23529ZM13.7647 16.9412H16.9412V13.7647H13.7647V16.9412ZM13.7647 12.7059H16.9412V9.52941H13.7647V12.7059Z" fill="white"/>
</svg>
