<svg width="20" height="20" viewBox="0 0 20 20" fill="none" xmlns="http://www.w3.org/2000/svg">
<path d="M10 1.66675C14.6025 1.66675 18.3334 5.39758 18.3334 10.0001C18.3334 14.6026 14.6025 18.3334 10 18.3334C8.67002 18.3352 7.35905 18.0174 6.17753 17.4067L2.98919 18.2959C2.81131 18.3456 2.62343 18.347 2.4448 18.3001C2.26617 18.2533 2.10321 18.1597 1.97262 18.0292C1.84203 17.8986 1.74851 17.7356 1.70163 17.557C1.65476 17.3783 1.65622 17.1905 1.70586 17.0126L2.59586 13.8267C1.98365 12.6442 1.66496 11.3317 1.66669 10.0001C1.66669 5.39758 5.39753 1.66675 10 1.66675ZM10 2.91675C8.12141 2.91675 6.31974 3.66303 4.99135 4.99141C3.66297 6.31979 2.91669 8.12146 2.91669 10.0001C2.91669 11.2251 3.22753 12.4026 3.81086 13.4476L3.93586 13.6726L3.00919 16.9926L6.33169 16.0659L6.55669 16.1909C7.50201 16.7165 8.55514 17.0186 9.63532 17.0741C10.7155 17.1296 11.794 16.9369 12.7882 16.511C13.7824 16.085 14.6659 15.4371 15.3708 14.6168C16.0758 13.7964 16.5835 12.8256 16.8551 11.7786C17.1267 10.7317 17.1549 9.63645 16.9376 8.57691C16.7202 7.51736 16.2632 6.52165 15.6014 5.66614C14.9396 4.81062 14.0907 4.11801 13.1198 3.64143C12.1488 3.16485 11.0816 2.91696 10 2.91675ZM10 12.9167C10.221 12.9167 10.433 13.0045 10.5893 13.1608C10.7456 13.3171 10.8334 13.5291 10.8334 13.7501C10.8334 13.9711 10.7456 14.1831 10.5893 14.3393C10.433 14.4956 10.221 14.5834 10 14.5834C9.77901 14.5834 9.56705 14.4956 9.41077 14.3393C9.25449 14.1831 9.16669 13.9711 9.16669 13.7501C9.16669 13.5291 9.25449 13.3171 9.41077 13.1608C9.56705 13.0045 9.77901 12.9167 10 12.9167ZM10 5.62508C10.6078 5.62508 11.1907 5.86652 11.6205 6.29629C12.0503 6.72607 12.2917 7.30896 12.2917 7.91675C12.2917 8.75841 12.0442 9.22841 11.4159 9.88258L11.275 10.0251C10.7567 10.5434 10.625 10.7634 10.625 11.2501C10.625 11.4158 10.5592 11.5748 10.442 11.692C10.3248 11.8092 10.1658 11.8751 10 11.8751C9.83427 11.8751 9.6753 11.8092 9.55809 11.692C9.44088 11.5748 9.37503 11.4158 9.37503 11.2501C9.37503 10.4084 9.62253 9.93841 10.2509 9.28425L10.3917 9.14175C10.91 8.62341 11.0417 8.40341 11.0417 7.91675C11.0408 7.65031 10.9379 7.39433 10.7541 7.20146C10.5703 7.00859 10.3195 6.89348 10.0534 6.87982C9.78736 6.86616 9.52615 6.95498 9.32354 7.12801C9.12094 7.30104 8.99234 7.54513 8.96419 7.81008L8.95836 7.91675C8.95836 8.08251 8.89251 8.24148 8.7753 8.35869C8.65809 8.4759 8.49912 8.54175 8.33336 8.54175C8.1676 8.54175 8.00863 8.4759 7.89142 8.35869C7.77421 8.24148 7.70836 8.08251 7.70836 7.91675C7.70836 7.30896 7.9498 6.72607 8.37957 6.29629C8.80935 5.86652 9.39224 5.62508 10 5.62508Z" fill="black"/>
</svg>
