<svg width="104" height="100" viewBox="0 0 104 100" fill="none" xmlns="http://www.w3.org/2000/svg">
<path d="M100 50C100 77.6142 77.6142 100 50 100C22.3858 100 0 77.6142 0 50C0 22.3858 22.3858 0 50 0C77.6142 0 100 22.3858 100 50ZM4.31017 50C4.31017 75.2338 24.7662 95.6898 50 95.6898C75.2338 95.6898 95.6898 75.2338 95.6898 50C95.6898 24.7662 75.2338 4.31017 50 4.31017C24.7662 4.31017 4.31017 24.7662 4.31017 50Z" fill="#0165FC"/>
<circle cx="50" cy="50" r="46" fill="#1B76FF"/>
<path d="M41.975 56.45L31.55 46.025L28 49.55L41.975 63.525L71.975 33.525L68.45 30L41.975 56.45Z" fill="white"/>
</svg>
