<svg width="27" height="27" viewBox="0 0 27 27" fill="none" xmlns="http://www.w3.org/2000/svg">
<path d="M12.8004 4.88599L12.7638 9.57335L9.63889 9.54893L13.5084 14.2668L17.4512 9.60997L14.3262 9.58556L14.3629 4.8982L18.269 4.92872L18.2687 4.96778C18.4 4.96099 18.5252 4.93072 18.6596 4.93177C20.2136 4.94391 21.6991 5.57286 22.7893 6.68026C23.8795 7.78766 24.4852 9.28279 24.473 10.8367C24.4495 13.8429 22.157 16.2751 19.2373 16.5882C18.9711 17.9232 18.248 19.1237 17.1924 19.9833C16.1368 20.8428 14.8147 21.3076 13.4535 21.2978C12.092 21.2865 10.7771 20.8011 9.73482 19.9251C8.69252 19.0492 7.98798 17.8375 7.74235 16.4984C4.82788 16.1397 2.57678 13.672 2.60026 10.6658C2.61241 9.11189 3.24136 7.6264 4.34875 6.53618C5.45615 5.44595 6.95129 4.84029 8.50524 4.85243C8.63649 4.85345 8.7628 4.88569 8.89555 4.89454L8.89585 4.85548L12.8004 4.88599Z" fill="black"/>
</svg>
