<svg width="18" height="16" viewBox="0 0 18 16" fill="none" xmlns="http://www.w3.org/2000/svg">
<path d="M13.4984 5.69167L14.725 4.46501C16.2909 5.36834 17.3334 6.61667 17.3334 8.00001C17.3334 10.7617 13.2017 12.9942 9.00002 13C8.14499 12.9999 7.29231 12.9106 6.45585 12.7333L7.91169 11.2783C8.26669 11.315 8.63002 11.3342 8.99752 11.3333H8.99919C8.65335 11.3333 8.32002 11.2808 8.00669 11.1833L9.65752 9.53167C10.0492 9.36334 10.3634 9.04917 10.5325 8.65751L12.1825 7.00667C12.3379 7.50427 12.3744 8.03137 12.289 8.54563C12.2037 9.05989 11.999 9.54697 11.6912 9.96774C11.3835 10.3885 10.9814 10.7312 10.5172 10.9684C10.053 11.2056 9.53963 11.3306 9.01835 11.3333C12.5559 11.3208 15.6667 9.51334 15.6667 8.00001C15.6667 7.21417 14.815 6.34501 13.4984 5.69167ZM5.74669 8.72917C5.63748 8.24201 5.63909 7.73655 5.75141 7.25009C5.86372 6.76364 6.08388 6.30863 6.39561 5.91866C6.70734 5.5287 7.10269 5.21373 7.55246 4.99704C8.00223 4.78034 8.49494 4.66744 8.99419 4.66667C5.47919 4.65417 2.33335 6.48167 2.33335 8.00001C2.33335 8.74667 3.08669 9.56417 4.27252 10.2033L3.05752 11.4167C1.61169 10.5233 0.666687 9.32084 0.666687 8.00001C0.666687 5.23834 4.82002 2.98584 9.00002 3.00001C9.76169 3.00251 10.5225 3.07834 11.2575 3.21834L9.77669 4.69834C9.53502 4.68001 9.29002 4.66917 9.04335 4.66667C9.27835 4.67001 9.50752 4.69751 9.72919 4.74667L5.74585 8.72917H5.74669ZM16.5767 0.25584C16.7329 0.412113 16.8207 0.624037 16.8207 0.845007C16.8207 1.06598 16.7329 1.2779 16.5767 1.43417L2.43502 15.5758C2.3582 15.6555 2.26629 15.719 2.16466 15.7628C2.06302 15.8065 1.95368 15.8296 1.84304 15.8306C1.73239 15.8317 1.62264 15.8107 1.5202 15.7688C1.41776 15.727 1.32467 15.6652 1.24637 15.587C1.16808 15.5088 1.10613 15.4158 1.06416 15.3134C1.02219 15.211 1.00102 15.1013 1.00191 14.9907C1.00279 14.88 1.0257 14.7707 1.0693 14.669C1.1129 14.5673 1.17632 14.4753 1.25585 14.3983L15.3975 0.256674C15.4749 0.179193 15.5668 0.117727 15.668 0.0757905C15.7692 0.0338536 15.8776 0.0122681 15.9871 0.0122681C16.0966 0.0122681 16.2051 0.0338536 16.3062 0.0757905C16.4074 0.117727 16.4993 0.17836 16.5767 0.25584Z" fill="black"/>
</svg>
