<svg width="175" height="44" viewBox="0 0 175 44" fill="none" xmlns="http://www.w3.org/2000/svg">
<rect x="0.5" y="0.5" width="174" height="43" rx="9.5" stroke="black"/>
<path d="M64.1172 15.625V27H62.1562V15.625H64.1172ZM68.7578 20.6016V22.1562H63.6172V20.6016H68.7578ZM69.4062 15.625V17.1875H63.6172V15.625H69.4062ZM75.2812 25.3047V21.2734C75.2812 20.9714 75.2266 20.7109 75.1172 20.4922C75.0078 20.2734 74.8411 20.1042 74.6172 19.9844C74.3984 19.8646 74.1224 19.8047 73.7891 19.8047C73.4818 19.8047 73.2161 19.8568 72.9922 19.9609C72.7682 20.0651 72.5938 20.2057 72.4688 20.3828C72.3438 20.5599 72.2812 20.7604 72.2812 20.9844H70.4062C70.4062 20.651 70.487 20.3281 70.6484 20.0156C70.8099 19.7031 71.0443 19.4245 71.3516 19.1797C71.6589 18.9349 72.026 18.7422 72.4531 18.6016C72.8802 18.4609 73.3594 18.3906 73.8906 18.3906C74.526 18.3906 75.0885 18.4974 75.5781 18.7109C76.0729 18.9245 76.4609 19.2474 76.7422 19.6797C77.0286 20.1068 77.1719 20.6432 77.1719 21.2891V25.0469C77.1719 25.4323 77.1979 25.7786 77.25 26.0859C77.3073 26.388 77.388 26.651 77.4922 26.875V27H75.5625C75.474 26.7969 75.4036 26.5391 75.3516 26.2266C75.3047 25.9089 75.2812 25.6016 75.2812 25.3047ZM75.5547 21.8594L75.5703 23.0234H74.2188C73.8698 23.0234 73.5625 23.0573 73.2969 23.125C73.0312 23.1875 72.8099 23.2812 72.6328 23.4062C72.4557 23.5312 72.3229 23.6823 72.2344 23.8594C72.1458 24.0365 72.1016 24.237 72.1016 24.4609C72.1016 24.6849 72.1536 24.8906 72.2578 25.0781C72.362 25.2604 72.513 25.4036 72.7109 25.5078C72.9141 25.612 73.1589 25.6641 73.4453 25.6641C73.8307 25.6641 74.1667 25.5859 74.4531 25.4297C74.7448 25.2682 74.974 25.0729 75.1406 24.8438C75.3073 24.6094 75.3958 24.388 75.4062 24.1797L76.0156 25.0156C75.9531 25.2292 75.8464 25.4583 75.6953 25.7031C75.5443 25.9479 75.3464 26.1823 75.1016 26.4062C74.862 26.625 74.5729 26.8047 74.2344 26.9453C73.901 27.0859 73.5156 27.1562 73.0781 27.1562C72.526 27.1562 72.0339 27.0469 71.6016 26.8281C71.1693 26.6042 70.8307 26.3047 70.5859 25.9297C70.3411 25.5495 70.2188 25.1198 70.2188 24.6406C70.2188 24.1927 70.3021 23.7969 70.4688 23.4531C70.6406 23.1042 70.8906 22.8125 71.2188 22.5781C71.5521 22.3438 71.9583 22.1667 72.4375 22.0469C72.9167 21.9219 73.4635 21.8594 74.0781 21.8594H75.5547ZM82.5938 25.6562C82.901 25.6562 83.1771 25.5964 83.4219 25.4766C83.6719 25.3516 83.8724 25.1797 84.0234 24.9609C84.1797 24.7422 84.2656 24.4896 84.2812 24.2031H86.0547C86.0443 24.75 85.8828 25.2474 85.5703 25.6953C85.2578 26.1432 84.8438 26.5 84.3281 26.7656C83.8125 27.026 83.2422 27.1562 82.6172 27.1562C81.9714 27.1562 81.4089 27.0469 80.9297 26.8281C80.4505 26.6042 80.0521 26.2969 79.7344 25.9062C79.4167 25.5156 79.1771 25.0651 79.0156 24.5547C78.8594 24.0443 78.7812 23.4974 78.7812 22.9141V22.6406C78.7812 22.0573 78.8594 21.5104 79.0156 21C79.1771 20.4844 79.4167 20.0312 79.7344 19.6406C80.0521 19.25 80.4505 18.9453 80.9297 18.7266C81.4089 18.5026 81.9688 18.3906 82.6094 18.3906C83.2865 18.3906 83.8802 18.526 84.3906 18.7969C84.901 19.0625 85.3021 19.4349 85.5938 19.9141C85.8906 20.388 86.0443 20.9401 86.0547 21.5703H84.2812C84.2656 21.2578 84.1875 20.9766 84.0469 20.7266C83.9115 20.4714 83.7188 20.2682 83.4688 20.1172C83.224 19.9661 82.9297 19.8906 82.5859 19.8906C82.2057 19.8906 81.8906 19.9688 81.6406 20.125C81.3906 20.276 81.1953 20.4844 81.0547 20.75C80.9141 21.0104 80.8125 21.3047 80.75 21.6328C80.6927 21.9557 80.6641 22.2917 80.6641 22.6406V22.9141C80.6641 23.263 80.6927 23.6016 80.75 23.9297C80.8073 24.2578 80.9062 24.5521 81.0469 24.8125C81.1927 25.0677 81.3906 25.2734 81.6406 25.4297C81.8906 25.5807 82.2083 25.6562 82.5938 25.6562ZM91.2266 27.1562C90.6016 27.1562 90.0365 27.0547 89.5312 26.8516C89.0312 26.6432 88.6042 26.3542 88.25 25.9844C87.901 25.6146 87.6328 25.1797 87.4453 24.6797C87.2578 24.1797 87.1641 23.6406 87.1641 23.0625V22.75C87.1641 22.0885 87.2604 21.4896 87.4531 20.9531C87.6458 20.4167 87.9141 19.9583 88.2578 19.5781C88.6016 19.1927 89.0078 18.8984 89.4766 18.6953C89.9453 18.4922 90.4531 18.3906 91 18.3906C91.6042 18.3906 92.1328 18.4922 92.5859 18.6953C93.0391 18.8984 93.4141 19.1849 93.7109 19.5547C94.013 19.9193 94.237 20.3542 94.3828 20.8594C94.5339 21.3646 94.6094 21.9219 94.6094 22.5312V23.3359H88.0781V21.9844H92.75V21.8359C92.7396 21.4974 92.6719 21.1797 92.5469 20.8828C92.4271 20.5859 92.2422 20.3464 91.9922 20.1641C91.7422 19.9818 91.4089 19.8906 90.9922 19.8906C90.6797 19.8906 90.401 19.9583 90.1562 20.0938C89.9167 20.224 89.7161 20.4141 89.5547 20.6641C89.3932 20.9141 89.2682 21.2161 89.1797 21.5703C89.0964 21.9193 89.0547 22.3125 89.0547 22.75V23.0625C89.0547 23.4323 89.1042 23.776 89.2031 24.0938C89.3073 24.4062 89.4583 24.6797 89.6562 24.9141C89.8542 25.1484 90.0938 25.3333 90.375 25.4688C90.6562 25.599 90.9766 25.6641 91.3359 25.6641C91.7891 25.6641 92.1927 25.5729 92.5469 25.3906C92.901 25.2083 93.2083 24.9505 93.4688 24.6172L94.4609 25.5781C94.2786 25.8438 94.0417 26.099 93.75 26.3438C93.4583 26.5833 93.1016 26.7786 92.6797 26.9297C92.263 27.0807 91.7786 27.1562 91.2266 27.1562ZM99.8047 27.1562C99.1797 27.1562 98.6146 27.0547 98.1094 26.8516C97.6094 26.6432 97.1823 26.3542 96.8281 25.9844C96.4792 25.6146 96.2109 25.1797 96.0234 24.6797C95.8359 24.1797 95.7422 23.6406 95.7422 23.0625V22.75C95.7422 22.0885 95.8385 21.4896 96.0312 20.9531C96.224 20.4167 96.4922 19.9583 96.8359 19.5781C97.1797 19.1927 97.5859 18.8984 98.0547 18.6953C98.5234 18.4922 99.0312 18.3906 99.5781 18.3906C100.182 18.3906 100.711 18.4922 101.164 18.6953C101.617 18.8984 101.992 19.1849 102.289 19.5547C102.591 19.9193 102.815 20.3542 102.961 20.8594C103.112 21.3646 103.188 21.9219 103.188 22.5312V23.3359H96.6562V21.9844H101.328V21.8359C101.318 21.4974 101.25 21.1797 101.125 20.8828C101.005 20.5859 100.82 20.3464 100.57 20.1641C100.32 19.9818 99.987 19.8906 99.5703 19.8906C99.2578 19.8906 98.9792 19.9583 98.7344 20.0938C98.4948 20.224 98.2943 20.4141 98.1328 20.6641C97.9714 20.9141 97.8464 21.2161 97.7578 21.5703C97.6745 21.9193 97.6328 22.3125 97.6328 22.75V23.0625C97.6328 23.4323 97.6823 23.776 97.7812 24.0938C97.8854 24.4062 98.0365 24.6797 98.2344 24.9141C98.4323 25.1484 98.6719 25.3333 98.9531 25.4688C99.2344 25.599 99.5547 25.6641 99.9141 25.6641C100.367 25.6641 100.771 25.5729 101.125 25.3906C101.479 25.2083 101.786 24.9505 102.047 24.6172L103.039 25.5781C102.857 25.8438 102.62 26.099 102.328 26.3438C102.036 26.5833 101.68 26.7786 101.258 26.9297C100.841 27.0807 100.357 27.1562 99.8047 27.1562ZM104.664 15H106.547V25.1953L106.367 27H104.664V15ZM112.062 22.6953V22.8594C112.062 23.4844 111.992 24.0599 111.852 24.5859C111.716 25.1068 111.508 25.5599 111.227 25.9453C110.951 26.3307 110.607 26.6302 110.195 26.8438C109.789 27.0521 109.318 27.1562 108.781 27.1562C108.255 27.1562 107.797 27.0573 107.406 26.8594C107.016 26.6615 106.688 26.3802 106.422 26.0156C106.161 25.651 105.951 25.2161 105.789 24.7109C105.628 24.2057 105.513 23.6484 105.445 23.0391V22.5156C105.513 21.901 105.628 21.3438 105.789 20.8438C105.951 20.3385 106.161 19.9036 106.422 19.5391C106.688 19.1693 107.013 18.8854 107.398 18.6875C107.789 18.4896 108.245 18.3906 108.766 18.3906C109.307 18.3906 109.784 18.4948 110.195 18.7031C110.612 18.9115 110.958 19.2083 111.234 19.5938C111.51 19.974 111.716 20.4271 111.852 20.9531C111.992 21.4792 112.062 22.0599 112.062 22.6953ZM110.18 22.8594V22.6953C110.18 22.3151 110.148 21.9583 110.086 21.625C110.023 21.2865 109.919 20.9896 109.773 20.7344C109.633 20.4792 109.44 20.2786 109.195 20.1328C108.956 19.9818 108.656 19.9062 108.297 19.9062C107.964 19.9062 107.677 19.9635 107.438 20.0781C107.198 20.1927 106.997 20.349 106.836 20.5469C106.674 20.7448 106.547 20.974 106.453 21.2344C106.365 21.4948 106.305 21.776 106.273 22.0781V23.4922C106.32 23.8828 106.419 24.2422 106.57 24.5703C106.727 24.8932 106.945 25.1536 107.227 25.3516C107.508 25.5443 107.87 25.6406 108.312 25.6406C108.661 25.6406 108.956 25.5703 109.195 25.4297C109.435 25.2891 109.625 25.0938 109.766 24.8438C109.911 24.5885 110.016 24.2917 110.078 23.9531C110.146 23.6146 110.18 23.25 110.18 22.8594ZM113.297 22.8672V22.6875C113.297 22.0781 113.385 21.513 113.562 20.9922C113.74 20.4661 113.995 20.0104 114.328 19.625C114.667 19.2344 115.078 18.9323 115.562 18.7188C116.052 18.5 116.604 18.3906 117.219 18.3906C117.839 18.3906 118.391 18.5 118.875 18.7188C119.365 18.9323 119.779 19.2344 120.117 19.625C120.456 20.0104 120.714 20.4661 120.891 20.9922C121.068 21.513 121.156 22.0781 121.156 22.6875V22.8672C121.156 23.4766 121.068 24.0417 120.891 24.5625C120.714 25.0833 120.456 25.5391 120.117 25.9297C119.779 26.3151 119.367 26.6172 118.883 26.8359C118.398 27.0495 117.849 27.1562 117.234 27.1562C116.615 27.1562 116.06 27.0495 115.57 26.8359C115.086 26.6172 114.674 26.3151 114.336 25.9297C113.997 25.5391 113.74 25.0833 113.562 24.5625C113.385 24.0417 113.297 23.4766 113.297 22.8672ZM115.18 22.6875V22.8672C115.18 23.2474 115.219 23.6068 115.297 23.9453C115.375 24.2839 115.497 24.5807 115.664 24.8359C115.831 25.0911 116.044 25.2917 116.305 25.4375C116.565 25.5833 116.875 25.6562 117.234 25.6562C117.583 25.6562 117.885 25.5833 118.141 25.4375C118.401 25.2917 118.615 25.0911 118.781 24.8359C118.948 24.5807 119.07 24.2839 119.148 23.9453C119.232 23.6068 119.273 23.2474 119.273 22.8672V22.6875C119.273 22.3125 119.232 21.9583 119.148 21.625C119.07 21.2865 118.945 20.987 118.773 20.7266C118.607 20.4661 118.393 20.263 118.133 20.1172C117.878 19.9661 117.573 19.8906 117.219 19.8906C116.865 19.8906 116.557 19.9661 116.297 20.1172C116.042 20.263 115.831 20.4661 115.664 20.7266C115.497 20.987 115.375 21.2865 115.297 21.625C115.219 21.9583 115.18 22.3125 115.18 22.6875ZM122.375 22.8672V22.6875C122.375 22.0781 122.464 21.513 122.641 20.9922C122.818 20.4661 123.073 20.0104 123.406 19.625C123.745 19.2344 124.156 18.9323 124.641 18.7188C125.13 18.5 125.682 18.3906 126.297 18.3906C126.917 18.3906 127.469 18.5 127.953 18.7188C128.443 18.9323 128.857 19.2344 129.195 19.625C129.534 20.0104 129.792 20.4661 129.969 20.9922C130.146 21.513 130.234 22.0781 130.234 22.6875V22.8672C130.234 23.4766 130.146 24.0417 129.969 24.5625C129.792 25.0833 129.534 25.5391 129.195 25.9297C128.857 26.3151 128.445 26.6172 127.961 26.8359C127.477 27.0495 126.927 27.1562 126.312 27.1562C125.693 27.1562 125.138 27.0495 124.648 26.8359C124.164 26.6172 123.753 26.3151 123.414 25.9297C123.076 25.5391 122.818 25.0833 122.641 24.5625C122.464 24.0417 122.375 23.4766 122.375 22.8672ZM124.258 22.6875V22.8672C124.258 23.2474 124.297 23.6068 124.375 23.9453C124.453 24.2839 124.576 24.5807 124.742 24.8359C124.909 25.0911 125.122 25.2917 125.383 25.4375C125.643 25.5833 125.953 25.6562 126.312 25.6562C126.661 25.6562 126.964 25.5833 127.219 25.4375C127.479 25.2917 127.693 25.0911 127.859 24.8359C128.026 24.5807 128.148 24.2839 128.227 23.9453C128.31 23.6068 128.352 23.2474 128.352 22.8672V22.6875C128.352 22.3125 128.31 21.9583 128.227 21.625C128.148 21.2865 128.023 20.987 127.852 20.7266C127.685 20.4661 127.471 20.263 127.211 20.1172C126.956 19.9661 126.651 19.8906 126.297 19.8906C125.943 19.8906 125.635 19.9661 125.375 20.1172C125.12 20.263 124.909 20.4661 124.742 20.7266C124.576 20.987 124.453 21.2865 124.375 21.625C124.297 21.9583 124.258 22.3125 124.258 22.6875ZM133.711 15V27H131.82V15H133.711ZM138.961 18.5469L135.281 22.625L133.266 24.6875L132.773 23.0938L134.297 21.2109L136.688 18.5469H138.961ZM137.094 27L134.352 23.0312L135.539 21.7109L139.273 27H137.094Z" fill="black"/>
<g clip-path="url(#clip0_83_1713)">
<path d="M41.375 7C42.9245 7 44.2493 7.55013 45.3496 8.65039C46.4499 9.75065 47 11.0755 47 12.625V31.375C47 32.9245 46.4499 34.2493 45.3496 35.3496C44.2493 36.4499 42.9245 37 41.375 37H37.7031V25.3789H41.5898L42.1758 20.8477H37.7031V17.957C37.7031 17.2279 37.8561 16.681 38.1621 16.3164C38.4681 15.9518 39.0638 15.7695 39.9492 15.7695L42.332 15.75V11.707C41.5117 11.5898 40.3529 11.5312 38.8555 11.5312C37.0846 11.5312 35.6686 12.0521 34.6074 13.0938C33.5462 14.1354 33.0156 15.6068 33.0156 17.5078V20.8477H29.1094V25.3789H33.0156V37H22.625C21.0755 37 19.7507 36.4499 18.6504 35.3496C17.5501 34.2493 17 32.9245 17 31.375V12.625C17 11.0755 17.5501 9.75065 18.6504 8.65039C19.7507 7.55013 21.0755 7 22.625 7H41.375Z" fill="#00008B"/>
</g>
<defs>
<clipPath id="clip0_83_1713">
<rect width="30" height="30" fill="white" transform="translate(17 7)"/>
</clipPath>
</defs>
</svg>
