<svg width="100" height="100" viewBox="0 0 100 100" fill="none" xmlns="http://www.w3.org/2000/svg">
<path d="M54.1667 83.3334H25C23.8949 83.3334 22.8351 82.8944 22.0537 82.113C21.2723 81.3316 20.8333 80.2718 20.8333 79.1667V20.8334C20.8333 19.7283 21.2723 18.6685 22.0537 17.8871C22.8351 17.1057 23.8949 16.6667 25 16.6667H45.8333V29.1667C45.8333 32.4819 47.1503 35.6613 49.4945 38.0055C51.8387 40.3498 55.0181 41.6667 58.3333 41.6667H70.8333V50C70.8333 51.1051 71.2723 52.1649 72.0537 52.9463C72.8351 53.7277 73.8949 54.1667 75 54.1667C76.1051 54.1667 77.1649 53.7277 77.9463 52.9463C78.7277 52.1649 79.1667 51.1051 79.1667 50V37.25C79.1233 36.8673 79.0395 36.4902 78.9167 36.125V35.75C78.7163 35.3216 78.4491 34.9278 78.125 34.5834L53.125 9.58337C52.7806 9.25927 52.3868 8.99204 51.9583 8.79171C51.834 8.77404 51.7077 8.77404 51.5833 8.79171C51.1601 8.54896 50.6926 8.39314 50.2083 8.33337H25C21.6848 8.33337 18.5054 9.65034 16.1612 11.9945C13.817 14.3387 12.5 17.5182 12.5 20.8334V79.1667C12.5 82.4819 13.817 85.6613 16.1612 88.0055C18.5054 90.3498 21.6848 91.6667 25 91.6667H54.1667C55.2717 91.6667 56.3315 91.2277 57.1129 90.4463C57.8943 89.6649 58.3333 88.6051 58.3333 87.5C58.3333 86.395 57.8943 85.3352 57.1129 84.5538C56.3315 83.7724 55.2717 83.3334 54.1667 83.3334ZM54.1667 22.5417L64.9583 33.3334H58.3333C57.2283 33.3334 56.1685 32.8944 55.3871 32.113C54.6057 31.3316 54.1667 30.2718 54.1667 29.1667V22.5417ZM33.3333 33.3334C32.2283 33.3334 31.1685 33.7724 30.3871 34.5538C29.6057 35.3352 29.1667 36.395 29.1667 37.5C29.1667 38.6051 29.6057 39.6649 30.3871 40.4463C31.1685 41.2277 32.2283 41.6667 33.3333 41.6667H37.5C38.6051 41.6667 39.6649 41.2277 40.4463 40.4463C41.2277 39.6649 41.6667 38.6051 41.6667 37.5C41.6667 36.395 41.2277 35.3352 40.4463 34.5538C39.6649 33.7724 38.6051 33.3334 37.5 33.3334H33.3333ZM58.3333 50H33.3333C32.2283 50 31.1685 50.439 30.3871 51.2204C29.6057 52.0018 29.1667 53.0616 29.1667 54.1667C29.1667 55.2718 29.6057 56.3316 30.3871 57.113C31.1685 57.8944 32.2283 58.3334 33.3333 58.3334H58.3333C59.4384 58.3334 60.4982 57.8944 61.2796 57.113C62.061 56.3316 62.5 55.2718 62.5 54.1667C62.5 53.0616 62.061 52.0018 61.2796 51.2204C60.4982 50.439 59.4384 50 58.3333 50ZM86.2917 72.0417L77.9583 63.7084C77.5621 63.329 77.0948 63.0317 76.5833 62.8334C75.5689 62.4166 74.4311 62.4166 73.4167 62.8334C72.9052 63.0317 72.4379 63.329 72.0417 63.7084L63.7083 72.0417C62.9237 72.8263 62.483 73.8905 62.483 75C62.483 76.1096 62.9237 77.1738 63.7083 77.9584C64.4929 78.743 65.5571 79.1838 66.6667 79.1838C67.7763 79.1838 68.8404 78.743 69.625 77.9584L70.8333 76.7084V87.5C70.8333 88.6051 71.2723 89.6649 72.0537 90.4463C72.8351 91.2277 73.8949 91.6667 75 91.6667C76.1051 91.6667 77.1649 91.2277 77.9463 90.4463C78.7277 89.6649 79.1667 88.6051 79.1667 87.5V76.7084L80.375 77.9584C80.7624 78.3489 81.2232 78.6589 81.7309 78.8704C82.2387 79.082 82.7833 79.1909 83.3333 79.1909C83.8834 79.1909 84.428 79.082 84.9357 78.8704C85.4435 78.6589 85.9043 78.3489 86.2917 77.9584C86.6822 77.571 86.9922 77.1102 87.2037 76.6024C87.4153 76.0947 87.5242 75.5501 87.5242 75C87.5242 74.45 87.4153 73.9054 87.2037 73.3976C86.9922 72.8899 86.6822 72.4291 86.2917 72.0417ZM50 75C51.1051 75 52.1649 74.5611 52.9463 73.7797C53.7277 72.9983 54.1667 71.9384 54.1667 70.8334C54.1667 69.7283 53.7277 68.6685 52.9463 67.8871C52.1649 67.1057 51.1051 66.6667 50 66.6667H33.3333C32.2283 66.6667 31.1685 67.1057 30.3871 67.8871C29.6057 68.6685 29.1667 69.7283 29.1667 70.8334C29.1667 71.9384 29.6057 72.9983 30.3871 73.7797C31.1685 74.5611 32.2283 75 33.3333 75H50Z" fill="black"/>
</svg>
