<svg width="175" height="44" viewBox="0 0 175 44" fill="none" xmlns="http://www.w3.org/2000/svg">
<rect x="0.5" y="0.5" width="174" height="43" rx="9.5" stroke="black"/>
<path d="M70.8906 21.1875V25.5312C70.7292 25.7448 70.4766 25.9792 70.1328 26.2344C69.7943 26.4844 69.3438 26.7005 68.7812 26.8828C68.2188 27.0651 67.5182 27.1562 66.6797 27.1562C65.9661 27.1562 65.3125 27.0365 64.7188 26.7969C64.125 26.5521 63.612 26.1953 63.1797 25.7266C62.7526 25.2578 62.4219 24.6875 62.1875 24.0156C61.9531 23.3385 61.8359 22.5677 61.8359 21.7031V20.9141C61.8359 20.0547 61.9427 19.2891 62.1562 18.6172C62.375 17.9401 62.6875 17.3672 63.0938 16.8984C63.5 16.4297 63.9896 16.0755 64.5625 15.8359C65.1406 15.5911 65.7943 15.4688 66.5234 15.4688C67.4557 15.4688 68.2266 15.625 68.8359 15.9375C69.4505 16.2448 69.9245 16.6719 70.2578 17.2188C70.5911 17.7656 70.8021 18.3906 70.8906 19.0938H68.9688C68.9062 18.6979 68.7839 18.3438 68.6016 18.0312C68.4245 17.7188 68.1693 17.474 67.8359 17.2969C67.5078 17.1146 67.0807 17.0234 66.5547 17.0234C66.1016 17.0234 65.7031 17.1094 65.3594 17.2812C65.0156 17.4531 64.7292 17.7057 64.5 18.0391C64.276 18.3724 64.1068 18.7786 63.9922 19.2578C63.8776 19.737 63.8203 20.2839 63.8203 20.8984V21.7031C63.8203 22.3281 63.8854 22.8828 64.0156 23.3672C64.151 23.8516 64.3438 24.2604 64.5938 24.5938C64.849 24.9271 65.1589 25.1797 65.5234 25.3516C65.888 25.5182 66.2995 25.6016 66.7578 25.6016C67.2057 25.6016 67.5729 25.5651 67.8594 25.4922C68.1458 25.4141 68.3724 25.3229 68.5391 25.2188C68.7109 25.1094 68.8438 25.0052 68.9375 24.9062V22.6484H66.5703V21.1875H70.8906ZM72.5156 22.8672V22.6875C72.5156 22.0781 72.6042 21.513 72.7812 20.9922C72.9583 20.4661 73.2135 20.0104 73.5469 19.625C73.8854 19.2344 74.2969 18.9323 74.7812 18.7188C75.2708 18.5 75.8229 18.3906 76.4375 18.3906C77.0573 18.3906 77.6094 18.5 78.0938 18.7188C78.5833 18.9323 78.9974 19.2344 79.3359 19.625C79.6745 20.0104 79.9323 20.4661 80.1094 20.9922C80.2865 21.513 80.375 22.0781 80.375 22.6875V22.8672C80.375 23.4766 80.2865 24.0417 80.1094 24.5625C79.9323 25.0833 79.6745 25.5391 79.3359 25.9297C78.9974 26.3151 78.5859 26.6172 78.1016 26.8359C77.6172 27.0495 77.0677 27.1562 76.4531 27.1562C75.8333 27.1562 75.2786 27.0495 74.7891 26.8359C74.3047 26.6172 73.8932 26.3151 73.5547 25.9297C73.2161 25.5391 72.9583 25.0833 72.7812 24.5625C72.6042 24.0417 72.5156 23.4766 72.5156 22.8672ZM74.3984 22.6875V22.8672C74.3984 23.2474 74.4375 23.6068 74.5156 23.9453C74.5938 24.2839 74.7161 24.5807 74.8828 24.8359C75.0495 25.0911 75.263 25.2917 75.5234 25.4375C75.7839 25.5833 76.0938 25.6562 76.4531 25.6562C76.8021 25.6562 77.1042 25.5833 77.3594 25.4375C77.6198 25.2917 77.8333 25.0911 78 24.8359C78.1667 24.5807 78.2891 24.2839 78.3672 23.9453C78.4505 23.6068 78.4922 23.2474 78.4922 22.8672V22.6875C78.4922 22.3125 78.4505 21.9583 78.3672 21.625C78.2891 21.2865 78.1641 20.987 77.9922 20.7266C77.8255 20.4661 77.612 20.263 77.3516 20.1172C77.0964 19.9661 76.7917 19.8906 76.4375 19.8906C76.0833 19.8906 75.776 19.9661 75.5156 20.1172C75.2604 20.263 75.0495 20.4661 74.8828 20.7266C74.7161 20.987 74.5938 21.2865 74.5156 21.625C74.4375 21.9583 74.3984 22.3125 74.3984 22.6875ZM81.5938 22.8672V22.6875C81.5938 22.0781 81.6823 21.513 81.8594 20.9922C82.0365 20.4661 82.2917 20.0104 82.625 19.625C82.9635 19.2344 83.375 18.9323 83.8594 18.7188C84.349 18.5 84.901 18.3906 85.5156 18.3906C86.1354 18.3906 86.6875 18.5 87.1719 18.7188C87.6615 18.9323 88.0755 19.2344 88.4141 19.625C88.7526 20.0104 89.0104 20.4661 89.1875 20.9922C89.3646 21.513 89.4531 22.0781 89.4531 22.6875V22.8672C89.4531 23.4766 89.3646 24.0417 89.1875 24.5625C89.0104 25.0833 88.7526 25.5391 88.4141 25.9297C88.0755 26.3151 87.6641 26.6172 87.1797 26.8359C86.6953 27.0495 86.1458 27.1562 85.5312 27.1562C84.9115 27.1562 84.3568 27.0495 83.8672 26.8359C83.3828 26.6172 82.9714 26.3151 82.6328 25.9297C82.2943 25.5391 82.0365 25.0833 81.8594 24.5625C81.6823 24.0417 81.5938 23.4766 81.5938 22.8672ZM83.4766 22.6875V22.8672C83.4766 23.2474 83.5156 23.6068 83.5938 23.9453C83.6719 24.2839 83.7943 24.5807 83.9609 24.8359C84.1276 25.0911 84.3411 25.2917 84.6016 25.4375C84.862 25.5833 85.1719 25.6562 85.5312 25.6562C85.8802 25.6562 86.1823 25.5833 86.4375 25.4375C86.6979 25.2917 86.9115 25.0911 87.0781 24.8359C87.2448 24.5807 87.3672 24.2839 87.4453 23.9453C87.5286 23.6068 87.5703 23.2474 87.5703 22.8672V22.6875C87.5703 22.3125 87.5286 21.9583 87.4453 21.625C87.3672 21.2865 87.2422 20.987 87.0703 20.7266C86.9036 20.4661 86.6901 20.263 86.4297 20.1172C86.1745 19.9661 85.8698 19.8906 85.5156 19.8906C85.1615 19.8906 84.8542 19.9661 84.5938 20.1172C84.3385 20.263 84.1276 20.4661 83.9609 20.7266C83.7943 20.987 83.6719 21.2865 83.5938 21.625C83.5156 21.9583 83.4766 22.3125 83.4766 22.6875ZM96.4453 18.5469H98.1562V26.7656C98.1562 27.526 97.9948 28.1719 97.6719 28.7031C97.349 29.2344 96.8984 29.638 96.3203 29.9141C95.7422 30.1953 95.0729 30.3359 94.3125 30.3359C93.9896 30.3359 93.6302 30.2891 93.2344 30.1953C92.8438 30.1016 92.4635 29.9505 92.0938 29.7422C91.7292 29.5391 91.4245 29.2708 91.1797 28.9375L92.0625 27.8281C92.3646 28.1875 92.6979 28.4505 93.0625 28.6172C93.4271 28.7839 93.8099 28.8672 94.2109 28.8672C94.6432 28.8672 95.0104 28.7865 95.3125 28.625C95.6198 28.4688 95.8568 28.237 96.0234 27.9297C96.1901 27.6224 96.2734 27.2474 96.2734 26.8047V20.4609L96.4453 18.5469ZM90.7031 22.8672V22.7031C90.7031 22.0625 90.7812 21.4792 90.9375 20.9531C91.0938 20.4219 91.3177 19.9661 91.6094 19.5859C91.901 19.2005 92.2552 18.9062 92.6719 18.7031C93.0885 18.4948 93.5599 18.3906 94.0859 18.3906C94.6328 18.3906 95.099 18.4896 95.4844 18.6875C95.875 18.8854 96.2005 19.1693 96.4609 19.5391C96.7214 19.9036 96.9245 20.3411 97.0703 20.8516C97.2214 21.3568 97.3333 21.9193 97.4062 22.5391V23.0625C97.3385 23.6667 97.224 24.2188 97.0625 24.7188C96.901 25.2188 96.6875 25.651 96.4219 26.0156C96.1562 26.3802 95.8281 26.6615 95.4375 26.8594C95.0521 27.0573 94.5964 27.1562 94.0703 27.1562C93.5547 27.1562 93.0885 27.0495 92.6719 26.8359C92.2604 26.6224 91.9062 26.3229 91.6094 25.9375C91.3177 25.5521 91.0938 25.099 90.9375 24.5781C90.7812 24.0521 90.7031 23.4818 90.7031 22.8672ZM92.5859 22.7031V22.8672C92.5859 23.2526 92.6224 23.612 92.6953 23.9453C92.7734 24.2786 92.8906 24.5729 93.0469 24.8281C93.2083 25.0781 93.4115 25.276 93.6562 25.4219C93.9062 25.5625 94.2005 25.6328 94.5391 25.6328C94.9818 25.6328 95.3438 25.5391 95.625 25.3516C95.9115 25.1641 96.1302 24.9115 96.2812 24.5938C96.4375 24.2708 96.5469 23.9115 96.6094 23.5156V22.1016C96.5781 21.7943 96.513 21.5078 96.4141 21.2422C96.3203 20.9766 96.1927 20.7448 96.0312 20.5469C95.8698 20.3438 95.6667 20.1875 95.4219 20.0781C95.1771 19.9635 94.888 19.9062 94.5547 19.9062C94.2161 19.9062 93.9219 19.9792 93.6719 20.125C93.4219 20.2708 93.2161 20.4714 93.0547 20.7266C92.8984 20.9818 92.7812 21.2786 92.7031 21.6172C92.625 21.9557 92.5859 22.3177 92.5859 22.7031ZM102.125 15V27H100.234V15H102.125ZM107.914 27.1562C107.289 27.1562 106.724 27.0547 106.219 26.8516C105.719 26.6432 105.292 26.3542 104.938 25.9844C104.589 25.6146 104.32 25.1797 104.133 24.6797C103.945 24.1797 103.852 23.6406 103.852 23.0625V22.75C103.852 22.0885 103.948 21.4896 104.141 20.9531C104.333 20.4167 104.602 19.9583 104.945 19.5781C105.289 19.1927 105.695 18.8984 106.164 18.6953C106.633 18.4922 107.141 18.3906 107.688 18.3906C108.292 18.3906 108.82 18.4922 109.273 18.6953C109.727 18.8984 110.102 19.1849 110.398 19.5547C110.701 19.9193 110.924 20.3542 111.07 20.8594C111.221 21.3646 111.297 21.9219 111.297 22.5312V23.3359H104.766V21.9844H109.438V21.8359C109.427 21.4974 109.359 21.1797 109.234 20.8828C109.115 20.5859 108.93 20.3464 108.68 20.1641C108.43 19.9818 108.096 19.8906 107.68 19.8906C107.367 19.8906 107.089 19.9583 106.844 20.0938C106.604 20.224 106.404 20.4141 106.242 20.6641C106.081 20.9141 105.956 21.2161 105.867 21.5703C105.784 21.9193 105.742 22.3125 105.742 22.75V23.0625C105.742 23.4323 105.792 23.776 105.891 24.0938C105.995 24.4062 106.146 24.6797 106.344 24.9141C106.542 25.1484 106.781 25.3333 107.062 25.4688C107.344 25.599 107.664 25.6641 108.023 25.6641C108.477 25.6641 108.88 25.5729 109.234 25.3906C109.589 25.2083 109.896 24.9505 110.156 24.6172L111.148 25.5781C110.966 25.8438 110.729 26.099 110.438 26.3438C110.146 26.5833 109.789 26.7786 109.367 26.9297C108.951 27.0807 108.466 27.1562 107.914 27.1562Z" fill="black"/>
<g clip-path="url(#clip0_83_1705)">
<path d="M41.9881 22.7339C41.9881 21.7097 41.903 20.9622 41.7189 20.1871H29.749V24.81H36.7751C36.6335 25.9589 35.8686 27.689 34.1687 28.8516L34.1448 29.0064L37.9295 31.8712L38.1917 31.8968C40.5998 29.7237 41.9881 26.5264 41.9881 22.7339Z" fill="#4285F4"/>
<path d="M29.749 34.9141C33.1912 34.9141 36.081 33.8068 38.1917 31.8968L34.1687 28.8516C33.0921 29.5852 31.6472 30.0973 29.749 30.0973C26.3776 30.0973 23.5162 27.9243 22.4962 24.9208L22.3467 24.9332L18.4113 27.9091L18.3599 28.0489C20.4563 32.1181 24.7627 34.9141 29.749 34.9141Z" fill="#34A853"/>
<path d="M22.4962 24.9208C22.2271 24.1457 22.0713 23.3152 22.0713 22.457C22.0713 21.5988 22.2271 20.7684 22.482 19.9933L22.4749 19.8282L18.4902 16.8046L18.3599 16.8652C17.4958 18.5538 17 20.4501 17 22.457C17 24.464 17.4958 26.3602 18.3599 28.0488L22.4962 24.9208Z" fill="#FBBC05"/>
<path d="M29.749 14.8167C32.143 14.8167 33.7578 15.8271 34.6786 16.6715L38.2767 13.2388C36.0669 11.2319 33.1912 10 29.749 10C24.7627 10 20.4563 12.7959 18.3599 16.8652L22.482 19.9933C23.5162 16.9898 26.3776 14.8167 29.749 14.8167Z" fill="#EB4335"/>
</g>
<defs>
<clipPath id="clip0_83_1705">
<rect width="25" height="25" fill="white" transform="translate(17 10)"/>
</clipPath>
</defs>
</svg>
