<svg width="22" height="22" viewBox="0 0 22 22" fill="none" xmlns="http://www.w3.org/2000/svg">
<g clip-path="url(#clip0_92_56)">
<path d="M20.6006 10.5661L11.4339 1.39945C11.3194 1.28563 11.1646 1.22174 11.0031 1.22174C10.8417 1.22174 10.6868 1.28563 10.5723 1.39945L1.40561 10.5661C1.3055 10.683 1.25318 10.8334 1.25912 10.9872C1.26506 11.141 1.32882 11.2869 1.43766 11.3957C1.54649 11.5046 1.69239 11.5683 1.84619 11.5743C1.99999 11.5802 2.15037 11.5279 2.26728 11.4278L11.0001 2.695L19.7328 11.4339C19.8497 11.534 20.0001 11.5863 20.1539 11.5804C20.3077 11.5744 20.4536 11.5107 20.5625 11.4018C20.6713 11.293 20.7351 11.1471 20.741 10.9933C20.7469 10.8395 20.6946 10.6891 20.5945 10.5722L20.6006 10.5661Z" fill="white"/>
<path d="M17.1111 19.5556H14.0555V13.4444H7.94441V19.5556H4.88885V11L3.66663 12.2222V19.5556C3.66663 19.8797 3.7954 20.1906 4.02461 20.4198C4.25382 20.649 4.5647 20.7778 4.88885 20.7778H9.16663V14.6667H12.8333V20.7778H17.1111C17.4352 20.7778 17.7461 20.649 17.9753 20.4198C18.2045 20.1906 18.3333 19.8797 18.3333 19.5556V12.0756L17.1111 10.8533V19.5556Z" fill="white"/>
</g>
<defs>
<clipPath id="clip0_92_56">
<rect width="22" height="22" fill="white"/>
</clipPath>
</defs>
</svg>
