<svg width="19" height="19" viewBox="0 0 19 19" fill="none" xmlns="http://www.w3.org/2000/svg">
<path d="M9.50003 10.0938H9.4169C8.06315 9.91563 6.43628 9.28625 6.43628 7.2675C6.43628 6.05625 7.24378 4.75 9.48815 4.75C11.7325 4.75 12.4688 6.365 12.54 7.22C12.5638 7.5525 12.3263 7.8375 11.9938 7.86125C11.8386 7.87202 11.6853 7.82245 11.5658 7.72288C11.4463 7.62331 11.3699 7.48144 11.3525 7.32688C11.3288 7.10125 11.1269 5.94938 9.47628 5.94938C8.24128 5.94938 7.6119 6.40063 7.6119 7.27938C7.6119 7.73063 7.6119 8.68063 9.5594 8.93C9.70737 8.95296 9.84131 9.03066 9.9347 9.1477C10.0281 9.26474 10.0741 9.41259 10.0637 9.56196C10.0532 9.71133 9.98703 9.85132 9.87825 9.95421C9.76946 10.0571 9.626 10.1154 9.47628 10.1175L9.50003 10.0938Z" fill="white"/>
<path d="M9.50004 14.25C7.24379 14.25 6.51942 12.635 6.44817 11.78C6.42442 11.4475 6.66192 11.1625 6.99442 11.1387C7.31504 11.115 7.60004 11.3525 7.63567 11.6731C7.65942 11.8987 7.86129 13.0506 9.51192 13.0506C10.7469 13.0506 11.3763 12.5994 11.3763 11.7206C11.3763 11.2694 11.3763 10.3194 9.42879 10.07C9.2734 10.0484 9.13274 9.96657 9.0372 9.84214C8.94166 9.71771 8.8989 9.56068 8.91817 9.40499C8.96567 9.08437 9.26254 8.84687 9.58317 8.89437C10.9369 9.07249 12.5638 9.70187 12.5638 11.7206C12.5638 12.9319 11.7563 14.2381 9.51192 14.2381L9.50004 14.25Z" fill="white"/>
<path d="M9.5 17.8125C4.91625 17.8125 1.1875 14.0837 1.1875 9.5C1.1875 4.91625 4.91625 1.1875 9.5 1.1875C14.0837 1.1875 17.8125 4.91625 17.8125 9.5C17.8125 14.0837 14.0837 17.8125 9.5 17.8125ZM9.5 2.375C5.56938 2.375 2.375 5.56938 2.375 9.5C2.375 13.4306 5.56938 16.625 9.5 16.625C13.4306 16.625 16.625 13.4306 16.625 9.5C16.625 5.56938 13.4306 2.375 9.5 2.375Z" fill="white"/>
<path d="M9.5 15.4375C9.1675 15.4375 8.90625 15.1763 8.90625 14.8438V4.15625C8.90625 3.82375 9.1675 3.5625 9.5 3.5625C9.8325 3.5625 10.0938 3.82375 10.0938 4.15625V14.8438C10.0938 15.1763 9.8325 15.4375 9.5 15.4375Z" fill="white"/>
</svg>
