<svg width="20" height="20" viewBox="0 0 20 20" fill="none" xmlns="http://www.w3.org/2000/svg">
<path d="M8.33331 6.66659V4.99992C8.33331 4.55789 8.50891 4.13397 8.82147 3.82141C9.13403 3.50885 9.55795 3.33325 9.99998 3.33325H15.8333C16.2753 3.33325 16.6993 3.50885 17.0118 3.82141C17.3244 4.13397 17.5 4.55789 17.5 4.99992V14.9999C17.5 15.4419 17.3244 15.8659 17.0118 16.1784C16.6993 16.491 16.2753 16.6666 15.8333 16.6666H9.99998C9.55795 16.6666 9.13403 16.491 8.82147 16.1784C8.50891 15.8659 8.33331 15.4419 8.33331 14.9999V13.3333" stroke="black" stroke-width="2" stroke-linecap="round" stroke-linejoin="round"/>
<path d="M12.5 10H2.5M2.5 10L5 7.5M2.5 10L5 12.5" stroke="black" stroke-width="2" stroke-linecap="round" stroke-linejoin="round"/>
</svg>
