<svg width="22" height="20" viewBox="0 0 22 20" fill="none" xmlns="http://www.w3.org/2000/svg">
<path d="M19.3705 11.0543L12.7182 17.7077C12.2772 18.1486 11.6791 18.3963 11.0554 18.3963C10.4318 18.3963 9.83371 18.1486 9.39267 17.7077L2.74037 11.0554C2.19047 10.5103 1.75365 9.86198 1.45499 9.14759C1.15633 8.43321 1.00171 7.66687 1.00001 6.89258C0.998319 6.11828 1.14958 5.35127 1.44511 4.63558C1.74063 3.9199 2.17461 3.26964 2.72212 2.72212C3.26964 2.17461 3.9199 1.74063 4.63559 1.44511C5.35127 1.14958 6.11828 0.998319 6.89258 1.00001C7.66687 1.00171 8.43321 1.15633 9.1476 1.45499C9.86198 1.75365 10.5103 2.19047 11.0554 2.74037C12.1627 1.66071 13.6507 1.06074 15.1971 1.07043C16.7436 1.08012 18.224 1.69869 19.3176 2.79214C20.4112 3.88559 21.03 5.36588 21.0399 6.91234C21.0498 8.45879 20.45 9.94689 19.3705 11.0543Z" stroke="black" stroke-width="1.5" stroke-linecap="round" stroke-linejoin="round"/>
</svg>
