<svg width="22" height="20" viewBox="0 0 22 20" fill="none" xmlns="http://www.w3.org/2000/svg">
<path d="M19.8195 11.6463L13.1672 18.2998C12.7262 18.7407 12.1281 18.9884 11.5044 18.9884C10.8808 18.9884 10.2827 18.7407 9.84164 18.2998L3.18935 11.6475C2.63944 11.1024 2.20262 10.454 1.90396 9.73963C1.6053 9.02525 1.45068 8.25891 1.44899 7.48462C1.44729 6.71032 1.59855 5.94331 1.89408 5.22763C2.18961 4.51194 2.62359 3.86168 3.1711 3.31417C3.71861 2.76665 4.36888 2.33267 5.08456 2.03715C5.80024 1.74162 6.56725 1.59036 7.34155 1.59206C8.11585 1.59375 8.88219 1.74837 9.59657 2.04703C10.311 2.34569 10.9593 2.78251 11.5044 3.33241C12.6116 2.25275 14.0997 1.65278 15.6461 1.66247C17.1926 1.67216 18.6729 2.29073 19.7666 3.38418C20.8602 4.47764 21.4789 5.95792 21.4889 7.50438C21.4988 9.05084 20.899 10.5389 19.8195 11.6463Z" stroke="#1B76FF" stroke-width="1.5" stroke-linecap="round" stroke-linejoin="round"/>
</svg>
