<svg width="30" height="24" viewBox="0 0 30 24" fill="none" xmlns="http://www.w3.org/2000/svg">
<g clip-path="url(#clip0_93_154)">
<path d="M5.45392 23.2044V21.6609C5.45392 21.0691 5.09368 20.6833 4.47622 20.6833C4.16755 20.6833 3.8331 20.7862 3.60153 21.1207C3.42153 20.8377 3.16431 20.6833 2.77841 20.6833C2.52106 20.6833 2.26396 20.7604 2.05806 21.0435V20.7348H1.51782V23.2044H2.05806V21.8409C2.05806 21.4037 2.28962 21.1978 2.64985 21.1978C3.00985 21.1978 3.19009 21.4294 3.19009 21.8409V23.2044H3.73032V21.8409C3.73032 21.4037 3.98743 21.1978 4.32188 21.1978C4.68212 21.1978 4.86212 21.4294 4.86212 21.8409V23.2044H5.45392ZM13.4544 20.7348H12.5799V19.9888H12.0396V20.7348H11.5508V21.2235H12.0395V22.3555C12.0395 22.9215 12.2711 23.2558 12.8885 23.2558C13.1201 23.2558 13.3772 23.1787 13.5574 23.0758L13.403 22.6127C13.2486 22.7156 13.0686 22.7414 12.94 22.7414C12.6827 22.7414 12.5799 22.5871 12.5799 22.3297V21.2235H13.4544V20.7348ZM18.0336 20.6832C17.725 20.6832 17.5192 20.8377 17.3905 21.0435V20.7348H16.8503V23.2044H17.3905V21.8153C17.3905 21.4037 17.5705 21.1721 17.905 21.1721C18.0079 21.1721 18.1365 21.1979 18.2394 21.2236L18.3938 20.7091C18.2909 20.6833 18.1365 20.6833 18.0336 20.6833M11.1135 20.9407C10.8561 20.7606 10.496 20.6835 10.1101 20.6835C9.49278 20.6835 9.08122 20.9921 9.08122 21.4809C9.08122 21.8926 9.38989 22.124 9.93013 22.2013L10.1874 22.2271C10.4704 22.2784 10.6247 22.3556 10.6247 22.4843C10.6247 22.6643 10.4189 22.7929 10.0587 22.7929C9.69856 22.7929 9.41556 22.6643 9.23544 22.5357L8.97821 22.9473C9.26122 23.1531 9.64712 23.256 10.0329 23.256C10.7533 23.256 11.1649 22.9216 11.1649 22.4585C11.1649 22.0212 10.8305 21.7896 10.3159 21.7125L10.0587 21.6867C9.82712 21.6609 9.64712 21.6096 9.64712 21.4553C9.64712 21.2751 9.82712 21.1722 10.1101 21.1722C10.4189 21.1722 10.7276 21.3008 10.8819 21.378L11.1135 20.9407ZM25.4684 20.6835C25.1596 20.6835 24.9538 20.8378 24.8251 21.0436V20.7349H24.2849V23.2045H24.8251V21.8154C24.8251 21.4038 25.0052 21.1722 25.3396 21.1722C25.4426 21.1722 25.5713 21.198 25.6742 21.2237L25.8285 20.7092C25.7256 20.6835 25.5713 20.6835 25.4684 20.6835ZM18.5739 21.9697C18.5739 22.7157 19.0883 23.256 19.8859 23.256C20.246 23.256 20.5033 23.1788 20.7605 22.9731L20.5033 22.5357C20.2975 22.6901 20.0917 22.7672 19.8601 22.7672C19.4228 22.7672 19.1141 22.4585 19.1141 21.9697C19.1141 21.5067 19.4228 21.1979 19.8601 21.1722C20.0917 21.1722 20.2975 21.2494 20.5033 21.4038L20.7605 20.9665C20.5033 20.7606 20.246 20.6835 19.8859 20.6835C19.0883 20.6835 18.5739 21.2237 18.5739 21.9697ZM23.5647 21.9697V20.7349H23.0244V21.0436C22.8443 20.8121 22.5871 20.6835 22.2526 20.6835C21.5581 20.6835 21.0178 21.2237 21.0178 21.9697C21.0178 22.7157 21.5581 23.256 22.2526 23.256C22.6127 23.256 22.8701 23.1274 23.0244 22.8958V23.2045H23.5647V21.9697ZM21.5837 21.9697C21.5837 21.5324 21.8667 21.1722 22.3297 21.1722C22.7671 21.1722 23.0759 21.5067 23.0759 21.9697C23.0759 22.4071 22.7671 22.7672 22.3297 22.7672C21.8667 22.7414 21.5837 22.4071 21.5837 21.9697ZM15.1267 20.6835C14.4063 20.6835 13.8918 21.1979 13.8918 21.9697C13.8918 22.7415 14.4062 23.256 15.1524 23.256C15.5125 23.256 15.8727 23.1531 16.1557 22.9216L15.8984 22.5357C15.6926 22.6901 15.4354 22.7929 15.1781 22.7929C14.8437 22.7929 14.5092 22.6386 14.432 22.2012H16.2586V21.9955C16.2844 21.1979 15.8214 20.6835 15.1267 20.6835ZM15.1266 21.1465C15.4609 21.1465 15.6926 21.3524 15.7439 21.7383H14.4577C14.5091 21.4038 14.7407 21.1465 15.1266 21.1465ZM28.5295 21.9697V19.7573H27.9893V21.0436C27.8092 20.8121 27.552 20.6835 27.2175 20.6835C26.5229 20.6835 25.9827 21.2237 25.9827 21.9697C25.9827 22.7157 26.5229 23.256 27.2175 23.256C27.5777 23.256 27.835 23.1274 27.9893 22.8958V23.2045H28.5295V21.9697ZM26.5487 21.9697C26.5487 21.5324 26.8316 21.1722 27.2947 21.1722C27.7321 21.1722 28.0408 21.5067 28.0408 21.9697C28.0408 22.4071 27.7321 22.7672 27.2947 22.7672C26.8316 22.7414 26.5487 22.4071 26.5487 21.9697ZM8.48931 21.9697V20.7349H7.94907V21.0436C7.76896 20.8121 7.51173 20.6835 7.17728 20.6835C6.48271 20.6835 5.94247 21.2237 5.94247 21.9697C5.94247 22.7157 6.48271 23.256 7.17728 23.256C7.53751 23.256 7.79474 23.1274 7.94907 22.8958V23.2045H8.48931V21.9697ZM6.48271 21.9697C6.48271 21.5324 6.76571 21.1722 7.22872 21.1722C7.66606 21.1722 7.97485 21.5067 7.97485 21.9697C7.97485 22.4071 7.66606 22.7672 7.22872 22.7672C6.76571 22.7414 6.48271 22.4071 6.48271 21.9697Z" fill="black"/>
<path d="M10.9333 1.98071H19.0369V16.5414H10.9333V1.98071Z" fill="#FF5F00"/>
<path d="M11.4479 9.26121C11.4479 6.30281 12.8371 3.67875 14.9722 1.98082C13.4031 0.746016 11.4223 0 9.26133 0C4.14176 0 0 4.14176 0 9.26121C0 14.3805 4.14176 18.5224 9.26121 18.5224C11.4221 18.5224 13.403 17.7764 14.9722 16.5415C12.8371 14.8693 11.4479 12.2196 11.4479 9.26121Z" fill="#EB001B"/>
<path d="M29.9703 9.26121C29.9703 14.3805 25.8285 18.5224 20.7091 18.5224C18.5481 18.5224 16.5673 17.7764 14.998 16.5415C17.159 14.8437 18.5225 12.2196 18.5225 9.26121C18.5225 6.30281 17.1332 3.67875 14.998 1.98082C16.5672 0.746016 18.5481 0 20.7091 0C25.8285 0 29.9703 4.16754 29.9703 9.26121Z" fill="#F79E1B"/>
</g>
<defs>
<clipPath id="clip0_93_154">
<rect width="30" height="23.3203" fill="white"/>
</clipPath>
</defs>
</svg>
