<svg width="20" height="20" viewBox="0 0 20 20" fill="none" xmlns="http://www.w3.org/2000/svg">
<path d="M17.2909 9.99995L18.2109 8.40995C18.3214 8.21865 18.3515 7.99127 18.2945 7.7778C18.2374 7.56434 18.0979 7.38226 17.9067 7.27161L16.315 6.35161V4.51828C16.315 4.29727 16.2272 4.0853 16.071 3.92902C15.9147 3.77274 15.7027 3.68495 15.4817 3.68495H13.6492L12.73 2.09411C12.619 1.90321 12.4373 1.7637 12.2242 1.70578C12.1185 1.67713 12.0082 1.66974 11.8996 1.68404C11.791 1.69835 11.6864 1.73406 11.5917 1.78911L10 2.70911L8.40836 1.78828C8.21696 1.67778 7.98951 1.64783 7.77603 1.70503C7.56255 1.76223 7.38054 1.90189 7.27003 2.09328L6.35003 3.68495H4.51753C4.29652 3.68495 4.08455 3.77274 3.92827 3.92902C3.77199 4.0853 3.6842 4.29727 3.6842 4.51828V6.35078L2.09253 7.27078C1.99756 7.32541 1.91431 7.39827 1.84758 7.48516C1.78085 7.57206 1.73195 7.67129 1.70369 7.77715C1.67542 7.883 1.66835 7.9934 1.68288 8.102C1.69742 8.21059 1.73326 8.31525 1.78836 8.40995L2.70836 9.99995L1.78836 11.5899C1.67835 11.7814 1.64851 12.0086 1.70533 12.222C1.76215 12.4354 1.90103 12.6177 2.0917 12.7291L3.68336 13.6491V15.4816C3.68336 15.7026 3.77116 15.9146 3.92744 16.0709C4.08372 16.2271 4.29568 16.3149 4.5167 16.3149H6.35003L7.27003 17.9066C7.34381 18.0327 7.44914 18.1375 7.57568 18.2105C7.70221 18.2836 7.84559 18.3224 7.9917 18.3233C8.1367 18.3233 8.28086 18.2849 8.4092 18.2108L9.9992 17.2908L11.5909 18.2108C11.7822 18.3211 12.0095 18.3511 12.2229 18.2941C12.4363 18.237 12.6184 18.0977 12.7292 17.9066L13.6484 16.3149H15.4809C15.7019 16.3149 15.9138 16.2271 16.0701 16.0709C16.2264 15.9146 16.3142 15.7026 16.3142 15.4816V13.6491L17.9059 12.7291C18.0007 12.6743 18.0838 12.6014 18.1504 12.5145C18.217 12.4276 18.2658 12.3284 18.294 12.2226C18.3223 12.1168 18.3294 12.0064 18.315 11.8979C18.3006 11.7893 18.2649 11.6847 18.21 11.5899L17.2909 9.99995ZM7.91586 5.82495C8.24749 5.82506 8.5655 5.9569 8.79992 6.19148C9.03434 6.42606 9.16597 6.74415 9.16586 7.07578C9.16575 7.40741 9.03391 7.72542 8.79933 7.95984C8.56475 8.19426 8.24666 8.32589 7.91503 8.32578C7.5834 8.32567 7.26539 8.19382 7.03097 7.95925C6.79655 7.72467 6.66492 7.40658 6.66503 7.07495C6.66514 6.74332 6.79699 6.42531 7.03156 6.19089C7.26614 5.95647 7.58423 5.82484 7.91586 5.82495ZM8.16586 13.8249L6.83253 12.8258L11.8325 6.15911L13.1659 7.15828L8.16586 13.8249ZM12.0825 14.1583C11.9183 14.1582 11.7557 14.1258 11.604 14.0629C11.4524 14 11.3145 13.9079 11.1985 13.7917C11.0824 13.6756 10.9903 13.5377 10.9276 13.386C10.8648 13.2343 10.8325 13.0717 10.8325 12.9074C10.8326 12.7432 10.865 12.5807 10.9279 12.429C10.9908 12.2773 11.0829 12.1395 11.1991 12.0234C11.3152 11.9073 11.4531 11.8153 11.6048 11.7525C11.7565 11.6897 11.9192 11.6574 12.0834 11.6574C12.415 11.6576 12.733 11.7894 12.9674 12.024C13.2018 12.2586 13.3335 12.5766 13.3334 12.9083C13.3333 13.2399 13.2014 13.5579 12.9668 13.7923C12.7323 14.0268 12.4142 14.1584 12.0825 14.1583Z" fill="black"/>
</svg>
