<svg width="18" height="18" viewBox="0 0 18 18" fill="none" xmlns="http://www.w3.org/2000/svg">
<path d="M10.503 7.6834C10.4317 7.68292 10.3631 7.71066 10.3122 7.76057C10.2613 7.81048 10.2321 7.8785 10.2312 7.9498V9.9406C10.2321 10.0121 10.2614 10.0802 10.3125 10.1301C10.3636 10.1801 10.4324 10.2077 10.5039 10.207H16.5006C16.5721 10.2077 16.6409 10.1801 16.692 10.1301C16.7431 10.0802 16.7724 10.0121 16.7733 9.9406V7.9498C16.7724 7.87835 16.7431 7.81018 16.692 7.76025C16.6409 7.71031 16.5721 7.68268 16.5006 7.6834H10.503ZM14.1804 1.351C15.0102 1.3906 15.6069 1.5544 15.9849 1.9018C16.3584 2.2456 16.5501 2.7433 16.5879 3.4021V5.2894C16.586 5.45012 16.5204 5.60353 16.4055 5.71591C16.2906 5.8283 16.1357 5.89048 15.975 5.8888C15.8953 5.88975 15.8163 5.875 15.7423 5.84539C15.6683 5.81578 15.6009 5.77189 15.5439 5.71623C15.4869 5.66057 15.4415 5.59423 15.4101 5.52099C15.3788 5.44776 15.3621 5.36906 15.3612 5.2894L15.3621 3.4363C15.3423 3.0943 15.2604 2.8819 15.1434 2.7739C15.03 2.6695 14.6844 2.5759 14.1507 2.5489H2.3823C1.899 2.5669 1.5849 2.6587 1.4328 2.7892C1.3158 2.8891 1.2276 3.1645 1.2267 3.6406L1.224 14.2336C1.269 14.6962 1.3707 15.0049 1.5012 15.1588C1.6002 15.2758 1.9071 15.3928 2.3589 15.4504H14.1633C14.7159 15.4612 15.0417 15.3784 15.1515 15.2677C15.273 15.1444 15.3612 14.8204 15.3612 14.2903V12.4498C15.3612 12.1195 15.6357 11.8504 15.975 11.8504C16.3134 11.8504 16.5879 12.1195 16.5879 12.4498V14.2903C16.5879 15.1003 16.4223 15.706 16.0344 16.0993C15.6348 16.5043 14.9994 16.6663 14.1507 16.6483L2.286 16.6456C1.4787 16.552 0.9 16.3306 0.5553 15.9229C0.243 15.5539 0.0693 15.0274 0 14.2912V3.6397C0.0018 2.8513 0.1908 2.2582 0.6246 1.8874C1.0224 1.5454 1.5966 1.3789 2.3589 1.3501L14.1804 1.351ZM16.5006 6.4846C17.3286 6.4846 18 7.1407 18 7.9498V9.9406C18 10.7497 17.3286 11.4058 16.5006 11.4058H10.5039C9.6759 11.4058 9.0045 10.7488 9.0045 9.9406V7.9498C9.0045 7.1407 9.6759 6.4846 10.5039 6.4846H16.5006ZM12.0033 8.2306C11.5893 8.2306 11.2536 8.5546 11.2536 8.9533C11.2536 9.3529 11.5893 9.676 12.0033 9.676C12.4173 9.676 12.753 9.352 12.753 8.9533C12.753 8.5537 12.4173 8.2297 12.0033 8.2297" fill="black"/>
</svg>
