<svg width="150" height="27" viewBox="0 0 150 27" fill="none" xmlns="http://www.w3.org/2000/svg">
<g clip-path="url(#clip0_430_421)">
<path d="M21.3293 2.54395H1.2295C0.588016 2.54395 -9.91672e-06 3.07395 -9.91672e-06 3.76295V5.98895C-9.91672e-06 6.67795 0.588016 7.26095 1.2295 7.26095H21.3293C22.0242 7.26095 22.5588 6.67795 22.6122 5.98895V3.81595C22.6122 3.07395 22.0242 2.54395 21.3293 2.54395ZM21.3293 15.0519H1.2295C0.908757 15.0519 0.588016 15.2109 0.320731 15.4229C0.106904 15.6349 -0.0534668 15.9529 -0.0534668 16.3239V18.5499C-0.0534668 19.2389 0.534559 19.8219 1.17604 19.8219H21.2758C21.9708 19.8219 22.5053 19.2919 22.5588 18.5499V16.3239C22.6122 15.5819 22.0242 15.0519 21.3293 15.0519ZM12.5624 21.2529H1.2295C0.908757 21.2529 0.588016 21.3589 0.374188 21.6239C0.160361 21.8359 -9.91672e-06 22.1539 -9.91672e-06 22.5249V24.7509C-9.91672e-06 25.4399 0.588016 26.0229 1.2295 26.0229H12.5089C13.2038 26.0229 13.7384 25.4399 13.7384 24.7509V22.4719C13.7919 21.8359 13.2573 21.2529 12.5624 21.2529ZM22.6122 8.79795H1.2295C0.908757 8.79795 0.588016 8.90394 0.374188 9.16895C0.160361 9.38095 -9.91672e-06 9.69895 -9.91672e-06 10.0699V12.2959C-9.91672e-06 12.9849 0.588016 13.5679 1.2295 13.5679H22.5588C23.2537 13.5679 23.7883 12.9849 23.7883 12.2959V10.0699C23.8418 9.32795 23.3072 8.79795 22.6122 8.79795Z" fill="#00C3F7"/>
<path d="M45.9729 7.579C45.3314 6.943 44.6365 6.466 43.7812 6.095C42.9793 5.724 42.0706 5.565 41.1618 5.565C40.3065 5.565 39.4512 5.724 38.6493 6.095C38.1148 6.36 37.6336 6.678 37.2594 7.102V6.731C37.2594 6.519 37.1525 6.36 37.0456 6.201C36.8853 6.042 36.7249 5.936 36.5111 5.936H33.6778C33.464 5.936 33.2502 6.042 33.1433 6.201C32.9829 6.36 32.9294 6.519 32.9294 6.731V25.281C32.9294 25.493 33.0364 25.652 33.1433 25.811C33.3036 25.97 33.464 26.023 33.6778 26.023H36.5111C36.7249 26.023 36.8853 25.97 37.0456 25.811C37.206 25.652 37.2594 25.493 37.2594 25.281V18.921C37.6871 19.345 38.1682 19.716 38.7562 19.875C39.5046 20.14 40.3065 20.299 41.0549 20.299C41.9637 20.299 42.8724 20.14 43.6743 19.769C44.5296 19.451 45.278 18.921 45.866 18.285C46.5075 17.596 47.0421 16.801 47.3628 15.953C47.737 14.999 47.9508 13.939 47.8974 12.932C47.8974 11.872 47.737 10.865 47.3628 9.858C47.149 9.063 46.6144 8.268 45.9729 7.579ZM43.4605 14.31C43.3001 14.681 43.0863 15.052 42.819 15.37C42.2309 16.006 41.4291 16.324 40.5738 16.324C40.1461 16.324 39.7185 16.218 39.3443 16.059C38.9701 15.9 38.5959 15.635 38.3286 15.37C38.0613 15.052 37.794 14.681 37.6337 14.31C37.3129 13.462 37.3129 12.561 37.6337 11.713C37.794 11.342 38.0078 10.971 38.3286 10.653C38.6493 10.335 38.9701 10.123 39.3443 9.911C39.7185 9.752 40.1461 9.646 40.5738 9.646C41.0014 9.646 41.4291 9.752 41.8567 9.911C42.2309 10.07 42.5517 10.335 42.8724 10.6C43.1397 10.918 43.3535 11.236 43.5139 11.66C43.7812 12.508 43.7812 13.462 43.4605 14.31ZM63.3464 5.989H60.5132C60.2994 5.989 60.139 6.095 59.9786 6.201C59.8183 6.36 59.7648 6.572 59.7648 6.784V7.102C59.3906 6.678 58.9629 6.36 58.4818 6.148C57.7334 5.777 56.8781 5.618 56.0228 5.618C54.2053 5.618 52.4412 6.36 51.1582 7.632C50.5168 8.321 49.9822 9.116 49.608 9.964C49.1803 10.918 49.02 11.978 49.02 13.038C49.02 14.098 49.1803 15.158 49.608 16.112C49.9822 16.96 50.5168 17.755 51.1582 18.444C52.4412 19.716 54.1518 20.458 55.9694 20.458C56.8247 20.458 57.68 20.299 58.4284 19.928C58.9095 19.663 59.3906 19.345 59.7113 18.974V19.345C59.7113 19.557 59.8183 19.716 59.9252 19.875C60.0855 19.981 60.2459 20.087 60.4597 20.087H63.293C63.5068 20.087 63.6672 19.981 63.8275 19.875C63.9879 19.716 64.0413 19.557 64.0413 19.345V6.784C64.0413 6.572 63.9879 6.413 63.8275 6.254C63.7206 6.042 63.5602 5.989 63.3464 5.989ZM59.4975 14.257C59.3371 14.628 59.1233 14.999 58.856 15.317C58.5887 15.582 58.2145 15.847 57.8403 16.059C57.0385 16.43 56.1297 16.43 55.3279 16.059C54.9537 15.9 54.5795 15.635 54.3122 15.317C54.0449 14.999 53.7776 14.628 53.6707 14.257C53.35 13.409 53.35 12.508 53.6707 11.66C53.8311 11.289 54.0449 10.918 54.3122 10.6C54.5795 10.282 54.9537 10.07 55.3279 9.858C56.1297 9.487 57.0385 9.487 57.8403 9.858C58.2145 10.017 58.5353 10.282 58.856 10.547C59.1233 10.865 59.3371 11.183 59.4975 11.607C59.8717 12.508 59.8717 13.462 59.4975 14.257ZM91.5182 12.614C91.0905 12.243 90.6629 11.978 90.1283 11.766C89.5937 11.554 89.0592 11.395 88.4711 11.289L86.3329 10.865C85.7983 10.759 85.3706 10.6 85.1568 10.441C84.9964 10.335 84.8895 10.123 84.8895 9.911C84.8895 9.699 84.9964 9.487 85.3172 9.328C85.6914 9.116 86.119 9.01 86.4932 9.063C87.0278 9.063 87.6158 9.169 88.0969 9.381C88.5781 9.593 89.0592 9.858 89.4868 10.123C90.1283 10.494 90.6629 10.441 91.0371 10.017L92.0527 8.851C92.2666 8.639 92.3735 8.374 92.3735 8.109C92.3735 7.844 92.2131 7.526 91.9993 7.367C91.5716 6.996 90.8767 6.572 89.9145 6.201C89.0057 5.83 87.8297 5.618 86.4398 5.618C85.5845 5.618 84.7826 5.724 83.9808 5.989C83.2858 6.201 82.6443 6.519 82.1098 6.943C81.5752 7.314 81.201 7.844 80.8803 8.427C80.613 9.01 80.4526 9.593 80.4526 10.229C80.4526 11.395 80.8268 12.349 81.5217 13.038C82.2167 13.727 83.1255 14.204 84.3015 14.416L86.5467 14.893C87.0278 14.999 87.5089 15.105 87.99 15.317C88.2573 15.423 88.4177 15.635 88.4177 15.953C88.4177 16.218 88.3108 16.43 87.99 16.642C87.7227 16.854 87.2416 16.96 86.6536 16.96C86.0656 16.96 85.4241 16.854 84.8895 16.589C84.355 16.324 83.8739 16.006 83.4462 15.635C83.2324 15.476 83.0185 15.37 82.8047 15.264C82.5374 15.211 82.2167 15.264 81.8959 15.529L80.6664 16.483C80.3457 16.748 80.1319 17.172 80.2388 17.543C80.2922 17.967 80.6664 18.338 81.2545 18.815C82.8047 19.875 84.6757 20.405 86.5467 20.352C87.402 20.352 88.3108 20.246 89.1126 19.981C89.861 19.769 90.5025 19.451 91.0905 18.974C91.6251 18.55 92.1062 18.02 92.3735 17.437C92.6942 16.854 92.8012 16.218 92.8012 15.529C92.8012 14.946 92.6942 14.363 92.4269 13.78C92.2131 13.409 91.8924 12.985 91.5182 12.614ZM103.813 16.006C103.706 15.794 103.439 15.635 103.172 15.582C102.904 15.582 102.637 15.688 102.423 15.794C102.103 16.006 101.675 16.165 101.247 16.165C101.14 16.165 100.98 16.165 100.82 16.112C100.659 16.112 100.552 16.006 100.445 15.9C100.339 15.794 100.232 15.635 100.125 15.476C100.018 15.264 99.9644 14.999 100.018 14.734V9.646H103.706C103.92 9.646 104.134 9.54 104.294 9.381C104.455 9.222 104.562 9.063 104.562 8.851V6.678C104.562 6.466 104.455 6.254 104.294 6.148C104.134 5.989 103.974 5.936 103.76 5.936H100.071V2.491C100.071 2.279 100.018 2.067 99.8575 1.961C99.6971 1.802 99.5367 1.749 99.3229 1.749H96.4897C96.2758 1.749 96.062 1.802 95.9551 1.961C95.7947 2.12 95.7413 2.332 95.7413 2.491V5.989H94.1376C93.9237 5.989 93.7099 6.095 93.603 6.254C93.4426 6.413 93.3892 6.572 93.3892 6.784V8.957C93.3892 9.169 93.4426 9.328 93.603 9.487C93.7099 9.646 93.9237 9.752 94.1376 9.752H95.7413V15.794C95.7413 16.536 95.8482 17.225 96.1689 17.861C96.4362 18.391 96.8104 18.868 97.2381 19.239C97.6657 19.61 98.2003 19.875 98.7883 20.034C99.3763 20.193 99.9644 20.299 100.552 20.299C101.354 20.299 102.103 20.193 102.851 19.928C103.546 19.716 104.187 19.292 104.669 18.815C104.989 18.497 105.043 17.967 104.775 17.596L103.813 16.006ZM119.316 5.989H116.483C116.269 5.989 116.108 6.095 115.948 6.201C115.788 6.36 115.734 6.572 115.734 6.784V7.102C115.36 6.678 114.932 6.36 114.451 6.148C113.703 5.777 112.847 5.618 111.992 5.618C110.175 5.618 108.464 6.36 107.181 7.632C106.54 8.321 106.005 9.116 105.631 9.964C105.203 10.918 105.043 11.978 105.043 12.985C105.043 14.045 105.203 15.052 105.631 16.059C106.005 16.907 106.54 17.702 107.181 18.391C108.464 19.663 110.175 20.405 111.992 20.405C112.847 20.405 113.703 20.246 114.451 19.875C114.932 19.61 115.413 19.292 115.734 18.921V19.292C115.734 19.504 115.788 19.663 115.948 19.822C116.108 19.981 116.269 20.034 116.483 20.034H119.316C119.743 20.034 120.064 19.716 120.064 19.292V6.784C120.064 6.572 120.011 6.413 119.85 6.254C119.69 6.042 119.53 5.989 119.316 5.989ZM115.467 14.257C115.306 14.628 115.093 14.999 114.825 15.317C114.505 15.582 114.184 15.847 113.81 16.059C113.435 16.218 112.954 16.324 112.527 16.324C112.099 16.324 111.671 16.218 111.297 16.059C110.923 15.9 110.549 15.635 110.282 15.317C110.014 14.999 109.747 14.628 109.64 14.257C109.319 13.409 109.319 12.508 109.64 11.66C109.8 11.289 110.014 10.918 110.282 10.6C110.602 10.282 110.923 10.07 111.297 9.858C111.671 9.699 112.099 9.593 112.527 9.593C112.954 9.593 113.382 9.699 113.81 9.858C114.184 10.017 114.505 10.282 114.825 10.547C115.093 10.865 115.36 11.183 115.467 11.607C115.841 12.508 115.841 13.462 115.467 14.257ZM134.818 15.794L133.215 14.575C132.894 14.31 132.627 14.257 132.359 14.363C132.145 14.469 131.932 14.628 131.771 14.787C131.397 15.211 131.023 15.582 130.542 15.9C130.061 16.165 129.526 16.324 128.938 16.271C128.297 16.271 127.708 16.112 127.174 15.741C126.639 15.37 126.265 14.84 126.051 14.257C125.891 13.833 125.837 13.409 125.837 12.985C125.837 12.561 125.891 12.084 126.051 11.66C126.212 11.289 126.426 10.918 126.693 10.6C127.014 10.282 127.334 10.07 127.708 9.911C128.083 9.752 128.564 9.646 128.991 9.646C129.526 9.646 130.114 9.752 130.542 10.017C131.023 10.335 131.397 10.706 131.771 11.13C131.932 11.289 132.145 11.448 132.359 11.554C132.627 11.66 132.894 11.607 133.215 11.342L134.818 10.123C135.032 9.964 135.192 9.805 135.246 9.593C135.353 9.328 135.299 9.063 135.192 8.851C134.551 7.897 133.696 7.102 132.68 6.519C131.611 5.936 130.328 5.618 128.885 5.618C127.869 5.618 126.853 5.83 125.944 6.201C125.036 6.572 124.234 7.102 123.539 7.791C122.844 8.48 122.309 9.275 121.935 10.123C121.187 11.978 121.187 14.098 121.935 15.953C122.309 16.854 122.844 17.649 123.539 18.285C124.982 19.663 126.853 20.405 128.885 20.405C130.328 20.405 131.611 20.087 132.68 19.504C133.696 18.921 134.551 18.126 135.192 17.172C135.353 16.96 135.353 16.695 135.246 16.43C135.139 16.165 134.979 15.953 134.818 15.794ZM149.84 18.709L145.403 12.19L149.198 7.208C149.359 6.996 149.412 6.678 149.359 6.413C149.305 6.201 149.091 5.989 148.664 5.989H145.67C145.51 5.989 145.349 6.042 145.189 6.095C144.975 6.201 144.868 6.307 144.761 6.519L141.714 10.759H140.966V0.742C140.966 0.53 140.912 0.371 140.752 0.212C140.592 0.053 140.431 0 140.217 0H137.384C137.17 0 137.01 0.053 136.85 0.212C136.689 0.371 136.636 0.53 136.636 0.742V19.186C136.636 19.398 136.743 19.61 136.85 19.716C137.01 19.875 137.17 19.928 137.384 19.928H140.217C140.431 19.928 140.592 19.822 140.752 19.716C140.912 19.557 140.966 19.398 140.966 19.186V14.31H141.768L145.082 19.398C145.296 19.769 145.67 19.981 146.044 19.981H149.198C149.679 19.981 149.893 19.769 149.947 19.557C150.053 19.292 150 18.974 149.84 18.709ZM79.3835 5.989H76.2295C76.0157 5.989 75.7484 6.042 75.588 6.254C75.4277 6.413 75.3207 6.572 75.3207 6.784L72.9686 15.37H72.3806L69.8681 6.731C69.8147 6.572 69.7612 6.36 69.6009 6.201C69.4405 6.042 69.2267 5.936 69.0128 5.936H65.752C65.3243 5.936 65.057 6.095 64.9501 6.36C64.8432 6.625 64.8432 6.89 64.9501 7.102L68.9594 19.239C69.0128 19.398 69.1198 19.61 69.2801 19.716C69.4405 19.875 69.6543 19.928 69.8681 19.928H71.5788L71.4184 20.299L71.0442 21.412C70.9373 21.73 70.7235 22.048 70.4027 22.313C70.1354 22.525 69.8147 22.631 69.4405 22.631C69.1732 22.631 68.8525 22.578 68.5852 22.472C68.3179 22.366 68.0506 22.207 67.8368 22.048C67.623 21.889 67.3557 21.836 67.1418 21.836H67.0884C66.7676 21.836 66.5004 21.995 66.3934 22.26L65.3778 23.744C64.9501 24.38 65.2174 24.804 65.4847 25.016C66.0193 25.493 66.6607 25.864 67.3557 26.129C68.1041 26.394 68.9059 26.5 69.7612 26.5C71.2046 26.5 72.4341 26.129 73.3428 25.334C74.3051 24.486 75 23.373 75.3742 22.154L80.025 7.155C80.1319 6.89 80.1319 6.625 80.025 6.36C80.025 6.148 79.8111 5.989 79.3835 5.989Z" fill="#011B33"/>
</g>
<defs>
<clipPath id="clip0_430_421">
<rect width="150" height="26.5" fill="white"/>
</clipPath>
</defs>
</svg>
