<svg width="94" height="30" viewBox="0 0 94 30" fill="none" xmlns="http://www.w3.org/2000/svg">
<path d="M13.3949 2.87988H0.803693C0.401847 2.87988 0.0334872 3.47988 0.0334872 4.25988V6.77988C0.0334872 7.55988 0.401847 8.21988 0.803693 8.21988H13.3949C13.8302 8.21988 14.1651 7.55988 14.1986 6.77988V4.31988C14.1986 3.47988 13.8302 2.87988 13.3949 2.87988ZM13.3949 17.0399H0.803693C0.60277 17.0399 0.401847 17.2199 0.234411 17.4599C0.100462 17.6999 0 18.0599 0 18.4799V20.9999C0 21.7799 0.368359 22.4399 0.770206 22.4399H13.3614C13.7967 22.4399 14.1316 21.8399 14.1651 20.9999V18.4799C14.1986 17.6399 13.8302 17.0399 13.3949 17.0399ZM7.90299 24.0599H0.803693C0.60277 24.0599 0.401847 24.1799 0.267898 24.4799C0.133949 24.7199 0.0334872 25.0799 0.0334872 25.4999V28.0199C0.0334872 28.7999 0.401847 29.4599 0.803693 29.4599H7.8695C8.30483 29.4599 8.6397 28.7999 8.6397 28.0199V25.4399C8.67319 24.7199 8.33832 24.0599 7.90299 24.0599ZM14.1986 9.95988H0.803693C0.60277 9.95988 0.401847 10.0799 0.267898 10.3799C0.133949 10.6199 0.0334872 10.9799 0.0334872 11.3999V13.9199C0.0334872 14.6999 0.401847 15.3599 0.803693 15.3599H14.1651C14.6004 15.3599 14.9353 14.6999 14.9353 13.9199V11.3999C14.9688 10.5599 14.6339 9.95988 14.1986 9.95988Z" fill="#00C3F7"/>
<path d="M28.8325 8.58C28.4307 7.86 27.9953 7.32 27.4595 6.9C26.9572 6.48 26.3879 6.3 25.8187 6.3C25.2829 6.3 24.7471 6.48 24.2448 6.9C23.9099 7.2 23.6085 7.56 23.3741 8.04V7.62C23.3741 7.38 23.3071 7.2 23.2401 7.02C23.1397 6.84 23.0392 6.72 22.9053 6.72H21.1304C20.9965 6.72 20.8625 6.84 20.7956 7.02C20.6951 7.2 20.6616 7.38 20.6616 7.62V28.62C20.6616 28.86 20.7286 29.04 20.7956 29.22C20.896 29.4 20.9965 29.46 21.1304 29.46H22.9053C23.0392 29.46 23.1397 29.4 23.2401 29.22C23.3406 29.04 23.3741 28.86 23.3741 28.62V21.42C23.642 21.9 23.9434 22.32 24.3117 22.5C24.7806 22.8 25.2829 22.98 25.7517 22.98C26.321 22.98 26.8902 22.8 27.3926 22.38C27.9283 22.02 28.3972 21.42 28.7655 20.7C29.1674 19.92 29.5022 19.02 29.7032 18.06C29.9376 16.98 30.0715 15.78 30.038 14.64C30.038 13.44 29.9376 12.3 29.7032 11.16C29.5692 10.26 29.2344 9.36 28.8325 8.58ZM27.2586 16.2C27.1581 16.62 27.0242 17.04 26.8568 17.4C26.4884 18.12 25.9861 18.48 25.4503 18.48C25.1824 18.48 24.9145 18.36 24.6801 18.18C24.4457 18 24.2113 17.7 24.0438 17.4C23.8764 17.04 23.709 16.62 23.6085 16.2C23.4076 15.24 23.4076 14.22 23.6085 13.26C23.709 12.84 23.8429 12.42 24.0438 12.06C24.2448 11.7 24.4457 11.46 24.6801 11.22C24.9145 11.04 25.1824 10.92 25.4503 10.92C25.7182 10.92 25.9861 11.04 26.254 11.22C26.4884 11.4 26.6893 11.7 26.8902 12C27.0577 12.36 27.1916 12.72 27.2921 13.2C27.4595 14.16 27.4595 15.24 27.2586 16.2ZM39.7159 6.78H37.941C37.8071 6.78 37.7066 6.9 37.6062 7.02C37.5057 7.2 37.4722 7.44 37.4722 7.68V8.04C37.2378 7.56 36.9699 7.2 36.6685 6.96C36.1997 6.54 35.6639 6.36 35.1281 6.36C33.9895 6.36 32.8845 7.2 32.0808 8.64C31.6789 9.42 31.344 10.32 31.1096 11.28C30.8417 12.36 30.7413 13.56 30.7413 14.76C30.7413 15.96 30.8417 17.16 31.1096 18.24C31.344 19.2 31.6789 20.1 32.0808 20.88C32.8845 22.32 33.956 23.16 35.0946 23.16C35.6304 23.16 36.1662 22.98 36.635 22.56C36.9364 22.26 37.2378 21.9 37.4387 21.48V21.9C37.4387 22.14 37.5057 22.32 37.5727 22.5C37.6731 22.62 37.7736 22.74 37.9075 22.74H39.6824C39.8163 22.74 39.9168 22.62 40.0172 22.5C40.1177 22.32 40.1512 22.14 40.1512 21.9V7.68C40.1512 7.44 40.1177 7.26 40.0172 7.08C39.9503 6.84 39.8498 6.78 39.7159 6.78ZM37.3048 16.14C37.2043 16.56 37.0704 16.98 36.9029 17.34C36.7355 17.64 36.5011 17.94 36.2667 18.18C35.7644 18.6 35.1951 18.6 34.6928 18.18C34.4584 18 34.2239 17.7 34.0565 17.34C33.8891 16.98 33.7216 16.56 33.6547 16.14C33.4537 15.18 33.4537 14.16 33.6547 13.2C33.7551 12.78 33.8891 12.36 34.0565 12C34.2239 11.64 34.4584 11.4 34.6928 11.16C35.1951 10.74 35.7644 10.74 36.2667 11.16C36.5011 11.34 36.702 11.64 36.9029 11.94C37.0704 12.3 37.2043 12.66 37.3048 13.14C37.5392 14.16 37.5392 15.24 37.3048 16.14ZM57.3636 14.28C57.0957 13.86 56.8278 13.56 56.493 13.32C56.1581 13.08 55.8232 12.9 55.4548 12.78L54.1154 12.3C53.7805 12.18 53.5126 12 53.3786 11.82C53.2782 11.7 53.2112 11.46 53.2112 11.22C53.2112 10.98 53.2782 10.74 53.4791 10.56C53.7135 10.32 53.9814 10.2 54.2158 10.26C54.5507 10.26 54.9191 10.38 55.2204 10.62C55.5218 10.86 55.8232 11.16 56.0911 11.46C56.493 11.88 56.8278 11.82 57.0622 11.34L57.6985 10.02C57.8324 9.78 57.8994 9.48 57.8994 9.18C57.8994 8.88 57.799 8.52 57.665 8.34C57.3971 7.92 56.9618 7.44 56.359 7.02C55.7897 6.6 55.053 6.36 54.1823 6.36C53.6465 6.36 53.1442 6.48 52.6419 6.78C52.2066 7.02 51.8047 7.38 51.4699 7.86C51.135 8.28 50.9006 8.88 50.6997 9.54C50.5322 10.2 50.4318 10.86 50.4318 11.58C50.4318 12.9 50.6662 13.98 51.1015 14.76C51.5368 15.54 52.1061 16.08 52.8428 16.32L54.2493 16.86C54.5507 16.98 54.8521 17.1 55.1535 17.34C55.3209 17.46 55.4214 17.7 55.4214 18.06C55.4214 18.36 55.3544 18.6 55.1535 18.84C54.986 19.08 54.6846 19.2 54.3163 19.2C53.9479 19.2 53.5461 19.08 53.2112 18.78C52.8763 18.48 52.5749 18.12 52.3071 17.7C52.1731 17.52 52.0391 17.4 51.9052 17.28C51.7378 17.22 51.5368 17.28 51.3359 17.58L50.5657 18.66C50.3648 18.96 50.2308 19.44 50.2978 19.86C50.3313 20.34 50.5657 20.76 50.9341 21.3C51.9052 22.5 53.0773 23.1 54.2493 23.04C54.7851 23.04 55.3544 22.92 55.8567 22.62C56.3255 22.38 56.7274 22.02 57.0957 21.48C57.4306 21 57.732 20.4 57.8994 19.74C58.1003 19.08 58.1673 18.36 58.1673 17.58C58.1673 16.92 58.1003 16.26 57.9329 15.6C57.799 15.18 57.598 14.7 57.3636 14.28ZM65.0657 18.12C64.9987 17.88 64.8313 17.7 64.6638 17.64C64.4964 17.64 64.329 17.76 64.195 17.88C63.9941 18.12 63.7262 18.3 63.4583 18.3C63.3913 18.3 63.2909 18.3 63.1904 18.24C63.0899 18.24 63.023 18.12 62.956 18C62.889 17.88 62.822 17.7 62.7551 17.52C62.6881 17.28 62.6546 16.98 62.6881 16.68V10.92H64.9987C65.1327 10.92 65.2666 10.8 65.3671 10.62C65.4675 10.44 65.5345 10.26 65.5345 10.02V7.56C65.5345 7.32 65.4675 7.08 65.3671 6.96C65.2666 6.78 65.1661 6.72 65.0322 6.72H62.7216V2.82C62.7216 2.58 62.6881 2.34 62.5876 2.22C62.4872 2.04 62.3867 1.98 62.2528 1.98H60.4779C60.344 1.98 60.21 2.04 60.1431 2.22C60.0426 2.4 60.0091 2.64 60.0091 2.82V6.78H59.0045C58.8705 6.78 58.7366 6.9 58.6696 7.08C58.5692 7.26 58.5357 7.44 58.5357 7.68V10.14C58.5357 10.38 58.5692 10.56 58.6696 10.74C58.7366 10.92 58.8705 11.04 59.0045 11.04H60.0091V17.88C60.0091 18.72 60.0761 19.5 60.277 20.22C60.4444 20.82 60.6789 21.36 60.9468 21.78C61.2146 22.2 61.5495 22.5 61.9179 22.68C62.2862 22.86 62.6546 22.98 63.023 22.98C63.5253 22.98 63.9941 22.86 64.4629 22.56C64.8982 22.32 65.3001 21.84 65.6015 21.3C65.8024 20.94 65.8359 20.34 65.6684 19.92L65.0657 18.12ZM74.777 6.78H73.0021C72.8682 6.78 72.7677 6.9 72.6673 7.02C72.5668 7.2 72.5333 7.44 72.5333 7.68V8.04C72.2989 7.56 72.031 7.2 71.7296 6.96C71.2608 6.54 70.725 6.36 70.1892 6.36C69.0507 6.36 67.9791 7.2 67.1754 8.64C66.7735 9.42 66.4387 10.32 66.2042 11.28C65.9363 12.36 65.8359 13.56 65.8359 14.7C65.8359 15.9 65.9363 17.04 66.2042 18.18C66.4387 19.14 66.7735 20.04 67.1754 20.82C67.9791 22.26 69.0507 23.1 70.1892 23.1C70.725 23.1 71.2608 22.92 71.7296 22.5C72.031 22.2 72.3324 21.84 72.5333 21.42V21.84C72.5333 22.08 72.5668 22.26 72.6673 22.44C72.7677 22.62 72.8682 22.68 73.0021 22.68H74.777C75.0449 22.68 75.2458 22.32 75.2458 21.84V7.68C75.2458 7.44 75.2123 7.26 75.1119 7.08C75.0114 6.84 74.9109 6.78 74.777 6.78ZM72.3659 16.14C72.2654 16.56 72.1315 16.98 71.9641 17.34C71.7631 17.64 71.5622 17.94 71.3278 18.18C71.0934 18.36 70.792 18.48 70.5241 18.48C70.2562 18.48 69.9883 18.36 69.7539 18.18C69.5195 18 69.2851 17.7 69.1176 17.34C68.9502 16.98 68.7828 16.56 68.7158 16.14C68.5149 15.18 68.5149 14.16 68.7158 13.2C68.8162 12.78 68.9502 12.36 69.1176 12C69.3186 11.64 69.5195 11.4 69.7539 11.16C69.9883 10.98 70.2562 10.86 70.5241 10.86C70.792 10.86 71.0599 10.98 71.3278 11.16C71.5622 11.34 71.7631 11.64 71.9641 11.94C72.1315 12.3 72.2989 12.66 72.3659 13.14C72.6003 14.16 72.6003 15.24 72.3659 16.14ZM84.4883 17.88L83.4837 16.5C83.2827 16.2 83.1153 16.14 82.9479 16.26C82.8139 16.38 82.68 16.56 82.5795 16.74C82.3451 17.22 82.1107 17.64 81.8093 18C81.5079 18.3 81.173 18.48 80.8047 18.42C80.4028 18.42 80.0345 18.24 79.6996 17.82C79.3647 17.4 79.1303 16.8 78.9964 16.14C78.8959 15.66 78.8624 15.18 78.8624 14.7C78.8624 14.22 78.8959 13.68 78.9964 13.2C79.0968 12.78 79.2308 12.36 79.3982 12C79.5991 11.64 79.8001 11.4 80.0345 11.22C80.2689 11.04 80.5703 10.92 80.8382 10.92C81.173 10.92 81.5414 11.04 81.8093 11.34C82.1107 11.7 82.3451 12.12 82.5795 12.6C82.68 12.78 82.8139 12.96 82.9479 13.08C83.1153 13.2 83.2827 13.14 83.4837 12.84L84.4883 11.46C84.6222 11.28 84.7227 11.1 84.7562 10.86C84.8231 10.56 84.7896 10.26 84.7227 10.02C84.3208 8.94 83.785 8.04 83.1488 7.38C82.479 6.72 81.6753 6.36 80.7712 6.36C80.1349 6.36 79.4987 6.6 78.9294 7.02C78.3601 7.44 77.8578 8.04 77.4225 8.82C76.9871 9.6 76.6523 10.5 76.4179 11.46C75.949 13.56 75.949 15.96 76.4179 18.06C76.6523 19.08 76.9871 19.98 77.4225 20.7C78.3266 22.26 79.4987 23.1 80.7712 23.1C81.6753 23.1 82.479 22.74 83.1488 22.08C83.785 21.42 84.3208 20.52 84.7227 19.44C84.8231 19.2 84.8231 18.9 84.7562 18.6C84.6892 18.3 84.5887 18.06 84.4883 17.88ZM93.8982 21.18L91.1187 13.8L93.4963 8.16C93.5968 7.92 93.6303 7.56 93.5968 7.26C93.5633 7.02 93.4294 6.78 93.1615 6.78H91.2862C91.1857 6.78 91.0853 6.84 90.9848 6.9C90.8508 7.02 90.7839 7.14 90.7169 7.38L88.8081 12.18H88.3393V0.84C88.3393 0.6 88.3058 0.42 88.2053 0.24C88.1049 0.06 88.0044 0 87.8705 0H86.0957C85.9617 0 85.8612 0.06 85.7608 0.24C85.6603 0.42 85.6268 0.6 85.6268 0.84V21.72C85.6268 21.96 85.6938 22.2 85.7608 22.32C85.8612 22.5 85.9617 22.56 86.0957 22.56H87.8705C88.0044 22.56 88.1049 22.44 88.2053 22.32C88.3058 22.14 88.3393 21.96 88.3393 21.72V16.2H88.8416L90.9178 21.96C91.0518 22.38 91.2862 22.62 91.5206 22.62H93.4963C93.7977 22.62 93.9317 22.38 93.9652 22.14C94.0321 21.84 93.9986 21.48 93.8982 21.18ZM49.762 6.78H47.7863C47.6523 6.78 47.4849 6.84 47.3844 7.08C47.284 7.26 47.217 7.44 47.217 7.68L45.7436 17.4H45.3752L43.8013 7.62C43.7678 7.44 43.7343 7.2 43.6339 7.02C43.5334 6.84 43.3994 6.72 43.2655 6.72H41.2228C40.9549 6.72 40.7874 6.9 40.7205 7.2C40.6535 7.5 40.6535 7.8 40.7205 8.04L43.232 21.78C43.2655 21.96 43.3325 22.2 43.4329 22.32C43.5334 22.5 43.6673 22.56 43.8013 22.56H44.8729L44.7724 22.98L44.538 24.24C44.471 24.6 44.3371 24.96 44.1362 25.26C43.9687 25.5 43.7678 25.62 43.5334 25.62C43.366 25.62 43.165 25.56 42.9976 25.44C42.8302 25.32 42.6627 25.14 42.5288 24.96C42.3948 24.78 42.2274 24.72 42.0934 24.72H42.06C41.859 24.72 41.6916 24.9 41.6246 25.2L40.9884 26.88C40.7205 27.6 40.8879 28.08 41.0553 28.32C41.3902 28.86 41.7921 29.28 42.2274 29.58C42.6962 29.88 43.1985 30 43.7343 30C44.6385 30 45.4087 29.58 45.978 28.68C46.5807 27.72 47.0161 26.46 47.2505 25.08L50.1639 8.1C50.2308 7.8 50.2308 7.5 50.1639 7.2C50.1639 6.96 50.0299 6.78 49.762 6.78Z" fill="#011B33"/>
</svg>
