<svg width="50" height="50" viewBox="0 0 50 50" fill="none" xmlns="http://www.w3.org/2000/svg">
<g clip-path="url(#clip0_485_278)">
<rect width="50" height="50" rx="7" fill="white"/>
<path fill-rule="evenodd" clip-rule="evenodd" d="M29.2724 6.05364C29.1 5.77819 28.846 5.56333 28.5458 5.43899C28.2456 5.31465 27.9141 5.287 27.5974 5.35989L25.3499 5.87614C25.1196 5.92908 24.8802 5.92908 24.6499 5.87614L22.4024 5.35989C22.0857 5.287 21.7542 5.31465 21.454 5.43899C21.1538 5.56333 20.8998 5.77819 20.7274 6.05364L19.5024 8.00864C19.3774 8.20864 19.2086 8.37739 19.0086 8.50364L17.0536 9.72864C16.7787 9.90088 16.5641 10.1544 16.4398 10.4542C16.3155 10.7539 16.2876 11.0848 16.3599 11.4011L16.8761 13.6511C16.9289 13.8811 16.9289 14.12 16.8761 14.3499L16.3599 16.5986C16.2873 16.9151 16.3151 17.2464 16.4394 17.5463C16.5637 17.8463 16.7784 18.1001 17.0536 18.2724L19.0086 19.4974C19.2086 19.6224 19.3774 19.7911 19.5036 19.9911L20.7286 21.9461C21.0811 22.5099 21.7536 22.7886 22.4024 22.6399L24.6499 22.1236C24.8802 22.0707 25.1196 22.0707 25.3499 22.1236L27.5986 22.6399C27.9151 22.7125 28.2464 22.6847 28.5463 22.5604C28.8463 22.436 29.1001 22.2214 29.2724 21.9461L30.4974 19.9911C30.6224 19.7911 30.7911 19.6224 30.9911 19.4974L32.9474 18.2724C33.2226 18.0998 33.4372 17.8458 33.5613 17.5456C33.6854 17.2454 33.7129 16.9139 33.6399 16.5974L33.1249 14.3499C33.0719 14.1196 33.0719 13.8802 33.1249 13.6499L33.6411 11.4011C33.7139 11.0848 33.6863 10.7536 33.5622 10.4537C33.4381 10.1537 33.2236 9.89988 32.9486 9.72739L30.9924 8.50239C30.7927 8.37716 30.6239 8.20836 30.4986 8.00864L29.2724 6.05364ZM28.6436 11.2124C28.7209 11.0702 28.7401 10.9036 28.6971 10.7476C28.654 10.5916 28.5522 10.4584 28.4129 10.3759C28.2736 10.2935 28.1078 10.2683 27.9504 10.3057C27.7929 10.343 27.6561 10.44 27.5686 10.5761L24.2999 16.1086L22.3261 14.2186C22.2676 14.1585 22.1975 14.1108 22.1201 14.0783C22.0427 14.0459 21.9596 14.0293 21.8757 14.0297C21.7917 14.0301 21.7087 14.0473 21.6316 14.0805C21.5545 14.1136 21.4849 14.1619 21.4269 14.2226C21.3688 14.2832 21.3236 14.3549 21.2939 14.4334C21.2642 14.5119 21.2506 14.5955 21.2539 14.6794C21.2572 14.7633 21.2774 14.8456 21.3132 14.9215C21.349 14.9974 21.3998 15.0653 21.4624 15.1211L24.0049 17.5574C24.0729 17.6225 24.1548 17.6713 24.2444 17.7003C24.334 17.7293 24.4289 17.7377 24.5222 17.7248C24.6155 17.7119 24.7046 17.6782 24.783 17.626C24.8614 17.5739 24.927 17.5047 24.9749 17.4236L28.6436 11.2124Z" fill="#0165FC"/>
<path d="M9.35547 39.8027C9.35547 39.627 9.32812 39.4707 9.27344 39.334C9.22266 39.1973 9.13086 39.0723 8.99805 38.959C8.86523 38.8457 8.67773 38.7363 8.43555 38.6309C8.19727 38.5215 7.89258 38.4102 7.52148 38.2969C7.11523 38.1719 6.74023 38.0332 6.39648 37.8809C6.05664 37.7246 5.75977 37.5449 5.50586 37.3418C5.25195 37.1348 5.05469 36.8984 4.91406 36.6328C4.77344 36.3633 4.70312 36.0527 4.70312 35.7012C4.70312 35.3535 4.77539 35.0371 4.91992 34.752C5.06836 34.4668 5.27734 34.2207 5.54688 34.0137C5.82031 33.8027 6.14258 33.6406 6.51367 33.5273C6.88477 33.4102 7.29492 33.3516 7.74414 33.3516C8.37695 33.3516 8.92188 33.4688 9.37891 33.7031C9.83984 33.9375 10.1934 34.252 10.4395 34.6465C10.6895 35.041 10.8145 35.4766 10.8145 35.9531H9.35547C9.35547 35.6719 9.29492 35.4238 9.17383 35.209C9.05664 34.9902 8.87695 34.8184 8.63477 34.6934C8.39648 34.5684 8.09375 34.5059 7.72656 34.5059C7.37891 34.5059 7.08984 34.5586 6.85938 34.6641C6.62891 34.7695 6.45703 34.9121 6.34375 35.0918C6.23047 35.2715 6.17383 35.4746 6.17383 35.7012C6.17383 35.8613 6.21094 36.0078 6.28516 36.1406C6.35938 36.2695 6.47266 36.3906 6.625 36.5039C6.77734 36.6133 6.96875 36.7168 7.19922 36.8145C7.42969 36.9121 7.70117 37.0059 8.01367 37.0957C8.48633 37.2363 8.89844 37.3926 9.25 37.5645C9.60156 37.7324 9.89453 37.9238 10.1289 38.1387C10.3633 38.3535 10.5391 38.5977 10.6562 38.8711C10.7734 39.1406 10.832 39.4473 10.832 39.791C10.832 40.1504 10.7598 40.4746 10.6152 40.7637C10.4707 41.0488 10.2637 41.293 9.99414 41.4961C9.72852 41.6953 9.4082 41.8496 9.0332 41.959C8.66211 42.0645 8.24805 42.1172 7.79102 42.1172C7.38086 42.1172 6.97656 42.0625 6.57812 41.9531C6.18359 41.8438 5.82422 41.6777 5.5 41.4551C5.17578 41.2285 4.91797 40.9473 4.72656 40.6113C4.53516 40.2715 4.43945 39.875 4.43945 39.4219H5.91016C5.91016 39.6992 5.95703 39.9355 6.05078 40.1309C6.14844 40.3262 6.2832 40.4863 6.45508 40.6113C6.62695 40.7324 6.82617 40.8223 7.05273 40.8809C7.2832 40.9395 7.5293 40.9688 7.79102 40.9688C8.13477 40.9688 8.42188 40.9199 8.65234 40.8223C8.88672 40.7246 9.0625 40.5879 9.17969 40.4121C9.29688 40.2363 9.35547 40.0332 9.35547 39.8027ZM13.5039 35.6602V42H12.0859V35.6602H13.5039ZM11.9922 33.9961C11.9922 33.7812 12.0625 33.6035 12.2031 33.4629C12.3477 33.3184 12.5469 33.2461 12.8008 33.2461C13.0508 33.2461 13.248 33.3184 13.3926 33.4629C13.5371 33.6035 13.6094 33.7812 13.6094 33.9961C13.6094 34.207 13.5371 34.3828 13.3926 34.5234C13.248 34.6641 13.0508 34.7344 12.8008 34.7344C12.5469 34.7344 12.3477 34.6641 12.2031 34.5234C12.0625 34.3828 11.9922 34.207 11.9922 33.9961ZM19.1113 35.6602H20.3945V41.8242C20.3945 42.3945 20.2734 42.8789 20.0312 43.2773C19.7891 43.6758 19.4512 43.9785 19.0176 44.1855C18.584 44.3965 18.082 44.502 17.5117 44.502C17.2695 44.502 17 44.4668 16.7031 44.3965C16.4102 44.3262 16.125 44.2129 15.8477 44.0566C15.5742 43.9043 15.3457 43.7031 15.1621 43.4531L15.8242 42.6211C16.0508 42.8906 16.3008 43.0879 16.5742 43.2129C16.8477 43.3379 17.1348 43.4004 17.4355 43.4004C17.7598 43.4004 18.0352 43.3398 18.2617 43.2188C18.4922 43.1016 18.6699 42.9277 18.7949 42.6973C18.9199 42.4668 18.9824 42.1855 18.9824 41.8535V37.0957L19.1113 35.6602ZM14.8047 38.9004V38.7773C14.8047 38.2969 14.8633 37.8594 14.9805 37.4648C15.0977 37.0664 15.2656 36.7246 15.4844 36.4395C15.7031 36.1504 15.9688 35.9297 16.2812 35.7773C16.5938 35.6211 16.9473 35.543 17.3418 35.543C17.752 35.543 18.1016 35.6172 18.3906 35.7656C18.6836 35.9141 18.9277 36.127 19.123 36.4043C19.3184 36.6777 19.4707 37.0059 19.5801 37.3887C19.6934 37.7676 19.7773 38.1895 19.832 38.6543V39.0469C19.7812 39.5 19.6953 39.9141 19.5742 40.2891C19.4531 40.6641 19.293 40.9883 19.0938 41.2617C18.8945 41.5352 18.6484 41.7461 18.3555 41.8945C18.0664 42.043 17.7246 42.1172 17.3301 42.1172C16.9434 42.1172 16.5938 42.0371 16.2812 41.877C15.9727 41.7168 15.707 41.4922 15.4844 41.2031C15.2656 40.9141 15.0977 40.5742 14.9805 40.1836C14.8633 39.7891 14.8047 39.3613 14.8047 38.9004ZM16.2168 38.7773V38.9004C16.2168 39.1895 16.2441 39.459 16.2988 39.709C16.3574 39.959 16.4453 40.1797 16.5625 40.3711C16.6836 40.5586 16.8359 40.707 17.0195 40.8164C17.207 40.9219 17.4277 40.9746 17.6816 40.9746C18.0137 40.9746 18.2852 40.9043 18.4961 40.7637C18.7109 40.623 18.875 40.4336 18.9883 40.1953C19.1055 39.9531 19.1875 39.6836 19.2344 39.3867V38.3262C19.2109 38.0957 19.1621 37.8809 19.0879 37.6816C19.0176 37.4824 18.9219 37.3086 18.8008 37.1602C18.6797 37.0078 18.5273 36.8906 18.3438 36.8086C18.1602 36.7227 17.9434 36.6797 17.6934 36.6797C17.4395 36.6797 17.2188 36.7344 17.0312 36.8438C16.8438 36.9531 16.6895 37.1035 16.5684 37.2949C16.4512 37.4863 16.3633 37.709 16.3047 37.9629C16.2461 38.2168 16.2168 38.4883 16.2168 38.7773ZM23.2598 37.0137V42H21.8477V35.6602H23.1777L23.2598 37.0137ZM23.0078 38.5957L22.5508 38.5898C22.5547 38.1406 22.6172 37.7285 22.7383 37.3535C22.8633 36.9785 23.0352 36.6562 23.2539 36.3867C23.4766 36.1172 23.7422 35.9102 24.0508 35.7656C24.3594 35.6172 24.7031 35.543 25.082 35.543C25.3867 35.543 25.6621 35.5859 25.9082 35.6719C26.1582 35.7539 26.3711 35.8887 26.5469 36.0762C26.7266 36.2637 26.8633 36.5078 26.957 36.8086C27.0508 37.1055 27.0977 37.4707 27.0977 37.9043V42H25.6797V37.8984C25.6797 37.5938 25.6348 37.3535 25.5449 37.1777C25.459 36.998 25.332 36.8711 25.1641 36.7969C25 36.7188 24.7949 36.6797 24.5488 36.6797C24.3066 36.6797 24.0898 36.7305 23.8984 36.832C23.707 36.9336 23.5449 37.0723 23.4121 37.248C23.2832 37.4238 23.1836 37.627 23.1133 37.8574C23.043 38.0879 23.0078 38.334 23.0078 38.5957ZM36.4551 33.4688H37.9199V39.1699C37.9199 39.8184 37.7793 40.3613 37.498 40.7988C37.2168 41.2363 36.834 41.5664 36.3496 41.7891C35.8691 42.0078 35.332 42.1172 34.7383 42.1172C34.125 42.1172 33.5781 42.0078 33.0977 41.7891C32.6172 41.5664 32.2383 41.2363 31.9609 40.7988C31.6875 40.3613 31.5508 39.8184 31.5508 39.1699V33.4688H33.0156V39.1699C33.0156 39.5801 33.0859 39.918 33.2266 40.1836C33.3672 40.4453 33.5664 40.6387 33.8242 40.7637C34.082 40.8887 34.3867 40.9512 34.7383 40.9512C35.0898 40.9512 35.3926 40.8887 35.6465 40.7637C35.9043 40.6387 36.1035 40.4453 36.2441 40.1836C36.3848 39.918 36.4551 39.5801 36.4551 39.1699V33.4688ZM40.7969 36.8789V44.4375H39.3848V35.6602H40.6855L40.7969 36.8789ZM44.9277 38.7715V38.8945C44.9277 39.3555 44.873 39.7832 44.7637 40.1777C44.6582 40.5684 44.5 40.9102 44.2891 41.2031C44.082 41.4922 43.8262 41.7168 43.5215 41.877C43.2168 42.0371 42.8652 42.1172 42.4668 42.1172C42.0723 42.1172 41.7266 42.0449 41.4297 41.9004C41.1367 41.752 40.8887 41.543 40.6855 41.2734C40.4824 41.0039 40.3184 40.6875 40.1934 40.3242C40.0723 39.957 39.9863 39.5547 39.9355 39.1172V38.6426C39.9863 38.1777 40.0723 37.7559 40.1934 37.377C40.3184 36.998 40.4824 36.6719 40.6855 36.3984C40.8887 36.125 41.1367 35.9141 41.4297 35.7656C41.7227 35.6172 42.0645 35.543 42.4551 35.543C42.8535 35.543 43.207 35.6211 43.5156 35.7773C43.8242 35.9297 44.084 36.1484 44.2949 36.4336C44.5059 36.7148 44.6641 37.0547 44.7695 37.4531C44.875 37.8477 44.9277 38.2871 44.9277 38.7715ZM43.5156 38.8945V38.7715C43.5156 38.4785 43.4883 38.207 43.4336 37.957C43.3789 37.7031 43.293 37.4805 43.1758 37.2891C43.0586 37.0977 42.9082 36.9492 42.7246 36.8438C42.5449 36.7344 42.3281 36.6797 42.0742 36.6797C41.8242 36.6797 41.6094 36.7227 41.4297 36.8086C41.25 36.8906 41.0996 37.0059 40.9785 37.1543C40.8574 37.3027 40.7637 37.4766 40.6973 37.6758C40.6309 37.8711 40.584 38.084 40.5566 38.3145V39.4512C40.6035 39.7324 40.6836 39.9902 40.7969 40.2246C40.9102 40.459 41.0703 40.6465 41.2773 40.7871C41.4883 40.9238 41.7578 40.9922 42.0859 40.9922C42.3398 40.9922 42.5566 40.9375 42.7363 40.8281C42.916 40.7188 43.0625 40.5684 43.1758 40.377C43.293 40.1816 43.3789 39.957 43.4336 39.7031C43.4883 39.4492 43.5156 39.1797 43.5156 38.8945Z" fill="#0165FC"/>
</g>
<defs>
<clipPath id="clip0_485_278">
<rect width="50" height="50" rx="7" fill="white"/>
</clipPath>
</defs>
</svg>
