<svg width="35" height="14" viewBox="0 0 35 14" fill="none" xmlns="http://www.w3.org/2000/svg">
<rect width="35" height="14" rx="5" fill="#F3F5F8"/>
<path d="M8.99957 9.9508L6.39148 11.9161C6.29957 11.9786 6.20738 12.0062 6.1149 11.9988C6.02185 11.992 5.93683 11.9661 5.85986 11.9212C5.78232 11.8758 5.72344 11.809 5.68323 11.7209C5.64303 11.6322 5.64216 11.5376 5.68065 11.4369L6.67667 8.19864L4.19954 6.42943C4.10419 6.37088 4.0433 6.29557 4.01688 6.20348C3.99046 6.1114 3.99505 6.02016 4.03067 5.92979C4.06571 5.83884 4.11913 5.7658 4.19093 5.71066C4.26273 5.65552 4.34946 5.62795 4.45113 5.62795H7.56154L8.57824 2.3223C8.6173 2.22168 8.67359 2.14267 8.74712 2.08526C8.82064 2.02842 8.90479 2 8.99957 2C9.09435 2 9.1785 2.02842 9.25202 2.08526C9.32555 2.14267 9.38155 2.22168 9.42003 2.3223L10.4385 5.62795H13.5489C13.6505 5.62795 13.7373 5.65552 13.8091 5.71066C13.8809 5.7658 13.9343 5.83884 13.9693 5.92979C14.0049 6.02073 14.0095 6.11197 13.9831 6.20348C13.9567 6.29557 13.8958 6.37088 13.8005 6.42943L11.3233 8.19864L12.3194 11.4369C12.3578 11.5376 12.357 11.6322 12.3168 11.7209C12.2766 11.8095 12.2177 11.8763 12.1401 11.9212C12.0632 11.9661 11.9782 11.992 11.8851 11.9988C11.7926 12.0062 11.7004 11.9786 11.6085 11.9161L8.99957 9.9508Z" fill="#FFC700"/>
<path d="M18.3835 8.97727V8.00852L20.8125 4.18182H21.6477V5.52273H21.1534L19.6222 7.94602V7.99148H23.0739V8.97727H18.3835ZM21.1761 10V8.68182L21.1989 8.25284V4.18182H22.3523V10H21.1761ZM24.5028 10.0739C24.3153 10.0739 24.1544 10.0076 24.0199 9.875C23.8873 9.74053 23.821 9.57955 23.821 9.39205C23.821 9.20644 23.8873 9.04735 24.0199 8.91477C24.1544 8.7822 24.3153 8.71591 24.5028 8.71591C24.6847 8.71591 24.8438 8.7822 24.9801 8.91477C25.1165 9.04735 25.1847 9.20644 25.1847 9.39205C25.1847 9.51705 25.1525 9.63163 25.0881 9.7358C25.0256 9.83807 24.9432 9.92045 24.8409 9.98295C24.7386 10.0436 24.6259 10.0739 24.5028 10.0739ZM28.245 10.0795C27.8435 10.0795 27.4856 10.0057 27.1712 9.85795C26.8587 9.71023 26.6106 9.50663 26.4268 9.24716C26.2431 8.98769 26.1475 8.69034 26.1399 8.35511H27.3331C27.3464 8.58049 27.4411 8.76326 27.6172 8.90341C27.7933 9.04356 28.0026 9.11364 28.245 9.11364C28.4382 9.11364 28.6087 9.07102 28.7564 8.9858C28.906 8.89867 29.0225 8.77841 29.1058 8.625C29.1911 8.4697 29.2337 8.29167 29.2337 8.09091C29.2337 7.88636 29.1901 7.70644 29.103 7.55114C29.0178 7.39583 28.8994 7.27462 28.7479 7.1875C28.5964 7.10038 28.4231 7.05587 28.228 7.05398C28.0575 7.05398 27.8918 7.08902 27.7308 7.15909C27.5717 7.22917 27.4477 7.32481 27.3587 7.44602L26.2649 7.25L26.5405 4.18182H30.0973V5.1875H27.5547L27.4041 6.64489H27.4382C27.5405 6.50095 27.6948 6.38163 27.9013 6.28693C28.1077 6.19223 28.3388 6.14489 28.5945 6.14489C28.9448 6.14489 29.2573 6.22727 29.532 6.39205C29.8066 6.55682 30.0234 6.78314 30.1825 7.07102C30.3416 7.35701 30.4202 7.68655 30.4183 8.05966C30.4202 8.4517 30.3293 8.80019 30.1456 9.10511C29.9638 9.40814 29.709 9.64678 29.3814 9.82102C29.0556 9.99337 28.6768 10.0795 28.245 10.0795Z" fill="black"/>
</svg>
