<svg width="100" height="100" viewBox="0 0 100 100" fill="none" xmlns="http://www.w3.org/2000/svg">
<path d="M12.5 8.33337H20.8333V16.6667H29.1667V25H20.8333V83.3334H79.1667V25H70.8333V16.6667H79.1667V8.33337H87.5V91.6667H12.5V8.33337ZM62.5 16.6667V8.33337H70.8333V16.6667H62.5ZM54.1667 16.6667H62.5V25H54.1667V16.6667ZM45.8333 16.6667V8.33337H54.1667V16.6667H45.8333ZM37.5 16.6667H45.8333V25H37.5V16.6667ZM37.5 16.6667V8.33337H29.1667V16.6667H37.5ZM70.8333 33.3334H29.1667V41.6667H70.8333V33.3334ZM29.1667 50H70.8333V58.3334H29.1667V50ZM70.8333 75V66.6667H54.1667V75H70.8333Z" fill="black"/>
</svg>
