<svg width="23" height="24" viewBox="0 0 23 24" fill="none" xmlns="http://www.w3.org/2000/svg">
<path d="M20.8023 12.6533V11.3381L22.4267 9.89404C22.7262 9.62589 22.9227 9.25883 22.9815 8.85773C23.0403 8.45663 22.9577 8.04731 22.7482 7.70212L20.7515 4.26381C20.6032 4.00273 20.3898 3.78587 20.1329 3.635C19.876 3.48413 19.5846 3.40455 19.2878 3.40424C19.104 3.40281 18.9211 3.43184 18.7464 3.4902L16.6904 4.19505C16.3355 3.9554 15.9652 3.74003 15.5821 3.55037L15.1506 1.38423C15.0732 0.988489 14.8613 0.632999 14.552 0.379993C14.2426 0.126987 13.8555 -0.00741487 13.4585 0.000315835H9.49889C9.10183 -0.00741487 8.71475 0.126987 8.40539 0.379993C8.09604 0.632999 7.88413 0.988489 7.80677 1.38423L7.37527 3.55037C6.98941 3.73999 6.61633 3.95535 6.25847 4.19505L4.24484 3.45581C4.06826 3.40907 3.88541 3.39166 3.70336 3.40424C3.40662 3.40455 3.11519 3.48413 2.85828 3.635C2.60138 3.78587 2.38804 4.00273 2.23967 4.26381L0.242961 7.70212C0.0454789 8.0468 -0.0279046 8.45051 0.0353789 8.84412C0.0986623 9.23773 0.294675 9.59673 0.589847 9.85966L2.18891 11.3467V12.6619L0.589847 14.106C0.286338 14.3707 0.0849634 14.7361 0.0214606 15.1374C-0.0420422 15.5387 0.0364336 15.9498 0.242961 16.2979L2.23967 19.7362C2.38804 19.9973 2.60138 20.2141 2.85828 20.365C3.11519 20.5159 3.40662 20.5955 3.70336 20.5958C3.88725 20.5972 4.07014 20.5682 4.24484 20.5098L6.30077 19.805C6.65573 20.0446 7.026 20.26 7.40912 20.4496L7.84061 22.6158C7.91798 23.0115 8.12988 23.367 8.43924 23.62C8.74859 23.873 9.13568 24.0074 9.53274 23.9997H13.5262C13.9232 24.0074 14.3103 23.873 14.6197 23.62C14.929 23.367 15.1409 23.0115 15.2183 22.6158L15.6498 20.4496C16.0356 20.26 16.4087 20.0446 16.7666 19.805L18.814 20.5098C18.9887 20.5682 19.1716 20.5972 19.3555 20.5958C19.6523 20.5955 19.9437 20.5159 20.2006 20.365C20.4575 20.2141 20.6709 19.9973 20.8192 19.7362L22.7482 16.2979C22.9457 15.9532 23.0191 15.5495 22.9558 15.1559C22.8925 14.7623 22.6965 14.4033 22.4014 14.1403L20.8023 12.6533ZM19.2878 18.8766L16.3858 17.8795C15.7065 18.4641 14.9301 18.9211 14.093 19.229L13.4923 22.3149H9.49889L8.89819 19.2634C8.06771 18.9467 7.29551 18.4905 6.61382 17.9139L3.70336 18.8766L1.70665 15.4383L4.00794 13.3753C3.8515 12.4855 3.8515 11.5746 4.00794 10.6848L1.70665 8.5617L3.70336 5.12339L6.60536 6.1205C7.28469 5.53589 8.0611 5.07891 8.89819 4.77096L9.49889 1.68509H13.4923L14.093 4.73658C14.9235 5.05327 15.6957 5.50946 16.3774 6.08612L19.2878 5.12339L21.2846 8.5617L18.9833 10.6247C19.1397 11.5145 19.1397 12.4254 18.9833 13.3152L21.2846 15.4383L19.2878 18.8766Z" fill="#0165FC"/>
<path d="M11.4999 16.9997C10.4121 16.9997 9.34875 16.7065 8.4443 16.1571C7.53986 15.6077 6.83493 14.8268 6.41865 13.9132C6.00238 12.9996 5.89347 11.9943 6.10568 11.0244C6.31789 10.0546 6.8417 9.16368 7.61087 8.46443C8.38004 7.76519 9.36002 7.28899 10.4269 7.09607C11.4938 6.90315 12.5996 7.00217 13.6046 7.38059C14.6095 7.75902 15.4685 8.39987 16.0728 9.22209C16.6772 10.0443 16.9997 11.011 16.9997 11.9999C17.0071 12.6583 16.8698 13.3115 16.596 13.9211C16.3223 14.5308 15.9174 15.0846 15.4052 15.5502C14.8931 16.0158 14.2838 16.3839 13.6132 16.6328C12.9426 16.8817 12.2242 17.0064 11.4999 16.9997ZM11.4999 8.66663C11.0153 8.65636 10.5334 8.73557 10.0835 8.89945C9.63353 9.06332 9.22482 9.30847 8.88207 9.62006C8.53932 9.93165 8.26966 10.3032 8.08939 10.7123C7.90912 11.1213 7.822 11.5593 7.83329 11.9999C7.822 12.4404 7.90912 12.8784 8.08939 13.2875C8.26966 13.6965 8.53932 14.0681 8.88207 14.3797C9.22482 14.6913 9.63353 14.9364 10.0835 15.1003C10.5334 15.2642 11.0153 15.3434 11.4999 15.3331C11.9844 15.3434 12.4663 15.2642 12.9162 15.1003C13.3662 14.9364 13.7749 14.6913 14.1177 14.3797C14.4604 14.0681 14.7301 13.6965 14.9103 13.2875C15.0906 12.8784 15.1777 12.4404 15.1664 11.9999C15.1777 11.5593 15.0906 11.1213 14.9103 10.7123C14.7301 10.3032 14.4604 9.93165 14.1177 9.62006C13.7749 9.30847 13.3662 9.06332 12.9162 8.89945C12.4663 8.73557 11.9844 8.65636 11.4999 8.66663Z" fill="#0165FC"/>
</svg>
