<svg width="24" height="24" viewBox="0 0 24 24" fill="none" xmlns="http://www.w3.org/2000/svg">
<path d="M21.3023 12.6533V11.3381L22.9267 9.89404C23.2262 9.62589 23.4227 9.25883 23.4815 8.85773C23.5403 8.45663 23.4577 8.04731 23.2482 7.70212L21.2515 4.26381C21.1032 4.00273 20.8898 3.78587 20.6329 3.635C20.376 3.48413 20.0846 3.40455 19.7878 3.40424C19.604 3.40281 19.4211 3.43184 19.2464 3.4902L17.1904 4.19505C16.8355 3.9554 16.4652 3.74003 16.0821 3.55037L15.6506 1.38423C15.5732 0.988489 15.3613 0.632999 15.052 0.379993C14.7426 0.126987 14.3555 -0.00741487 13.9585 0.000315835H9.99889C9.60183 -0.00741487 9.21475 0.126987 8.90539 0.379993C8.59604 0.632999 8.38413 0.988489 8.30677 1.38423L7.87527 3.55037C7.48941 3.73999 7.11633 3.95535 6.75847 4.19505L4.74484 3.45581C4.56826 3.40907 4.38541 3.39166 4.20336 3.40424C3.90662 3.40455 3.61519 3.48413 3.35828 3.635C3.10138 3.78587 2.88804 4.00273 2.73967 4.26381L0.742961 7.70212C0.545479 8.0468 0.472095 8.45051 0.535379 8.84412C0.598662 9.23773 0.794675 9.59673 1.08985 9.85966L2.68891 11.3467V12.6619L1.08985 14.106C0.786338 14.3707 0.584963 14.7361 0.521461 15.1374C0.457958 15.5387 0.536434 15.9498 0.742961 16.2979L2.73967 19.7362C2.88804 19.9973 3.10138 20.2141 3.35828 20.365C3.61519 20.5159 3.90662 20.5955 4.20336 20.5958C4.38725 20.5972 4.57014 20.5682 4.74484 20.5098L6.80077 19.805C7.15573 20.0446 7.526 20.26 7.90912 20.4496L8.34061 22.6158C8.41798 23.0115 8.62988 23.367 8.93924 23.62C9.24859 23.873 9.63568 24.0074 10.0327 23.9997H14.0262C14.4232 24.0074 14.8103 23.873 15.1197 23.62C15.429 23.367 15.6409 23.0115 15.7183 22.6158L16.1498 20.4496C16.5356 20.26 16.9087 20.0446 17.2666 19.805L19.314 20.5098C19.4887 20.5682 19.6716 20.5972 19.8555 20.5958C20.1523 20.5955 20.4437 20.5159 20.7006 20.365C20.9575 20.2141 21.1709 19.9973 21.3192 19.7362L23.2482 16.2979C23.4457 15.9532 23.5191 15.5495 23.4558 15.1559C23.3925 14.7623 23.1965 14.4033 22.9014 14.1403L21.3023 12.6533ZM19.7878 18.8766L16.8858 17.8795C16.2065 18.4641 15.4301 18.9211 14.593 19.229L13.9923 22.3149H9.99889L9.39819 19.2634C8.56771 18.9467 7.79551 18.4905 7.11382 17.9139L4.20336 18.8766L2.20665 15.4383L4.50794 13.3753C4.3515 12.4855 4.3515 11.5746 4.50794 10.6848L2.20665 8.5617L4.20336 5.12339L7.10536 6.1205C7.78469 5.53589 8.5611 5.07891 9.39819 4.77096L9.99889 1.68509H13.9923L14.593 4.73658C15.4235 5.05327 16.1957 5.50946 16.8774 6.08612L19.7878 5.12339L21.7846 8.5617L19.4833 10.6247C19.6397 11.5145 19.6397 12.4254 19.4833 13.3152L21.7846 15.4383L19.7878 18.8766Z" fill="black"/>
<path d="M11.9999 16.9997C10.9121 16.9997 9.84875 16.7065 8.9443 16.1571C8.03986 15.6077 7.33493 14.8268 6.91865 13.9132C6.50238 12.9996 6.39347 11.9943 6.60568 11.0244C6.81789 10.0546 7.3417 9.16368 8.11087 8.46443C8.88004 7.76519 9.86002 7.28899 10.9269 7.09607C11.9938 6.90315 13.0996 7.00217 14.1046 7.38059C15.1095 7.75902 15.9685 8.39987 16.5728 9.22209C17.1772 10.0443 17.4997 11.011 17.4997 11.9999C17.5071 12.6583 17.3698 13.3115 17.096 13.9211C16.8223 14.5308 16.4174 15.0846 15.9052 15.5502C15.3931 16.0158 14.7838 16.3839 14.1132 16.6328C13.4426 16.8817 12.7242 17.0064 11.9999 16.9997ZM11.9999 8.66663C11.5153 8.65636 11.0334 8.73557 10.5835 8.89945C10.1335 9.06332 9.72482 9.30847 9.38207 9.62006C9.03932 9.93165 8.76966 10.3032 8.58939 10.7123C8.40912 11.1213 8.322 11.5593 8.33329 11.9999C8.322 12.4404 8.40912 12.8784 8.58939 13.2875C8.76966 13.6965 9.03932 14.0681 9.38207 14.3797C9.72482 14.6913 10.1335 14.9364 10.5835 15.1003C11.0334 15.2642 11.5153 15.3434 11.9999 15.3331C12.4844 15.3434 12.9663 15.2642 13.4162 15.1003C13.8662 14.9364 14.2749 14.6913 14.6177 14.3797C14.9604 14.0681 15.2301 13.6965 15.4103 13.2875C15.5906 12.8784 15.6777 12.4404 15.6664 11.9999C15.6777 11.5593 15.5906 11.1213 15.4103 10.7123C15.2301 10.3032 14.9604 9.93165 14.6177 9.62006C14.2749 9.30847 13.8662 9.06332 13.4162 8.89945C12.9663 8.73557 12.4844 8.65636 11.9999 8.66663Z" fill="black"/>
</svg>
