<svg width="20" height="20" viewBox="0 0 20 20" fill="none" xmlns="http://www.w3.org/2000/svg">
<path d="M6.25 1.25C6.41576 1.25 6.57473 1.31585 6.69194 1.43306C6.80915 1.55027 6.875 1.70924 6.875 1.875V2.5H9.375V1.875C9.375 1.70924 9.44085 1.55027 9.55806 1.43306C9.67527 1.31585 9.83424 1.25 10 1.25C10.1658 1.25 10.3247 1.31585 10.4419 1.43306C10.5592 1.55027 10.625 1.70924 10.625 1.875V2.5H13.125V1.875C13.125 1.70924 13.1908 1.55027 13.3081 1.43306C13.4253 1.31585 13.5842 1.25 13.75 1.25C13.9158 1.25 14.0747 1.31585 14.1919 1.43306C14.3092 1.55027 14.375 1.70924 14.375 1.875V2.5C14.8723 2.5 15.3492 2.69754 15.7008 3.04917C16.0525 3.40081 16.25 3.87772 16.25 4.375V7.545C15.8019 7.62293 15.3756 7.79598 15 8.0525V4.375C15 4.20924 14.9342 4.05027 14.8169 3.93306C14.6997 3.81585 14.5408 3.75 14.375 3.75H5.625C5.45924 3.75 5.30027 3.81585 5.18306 3.93306C5.06585 4.05027 5 4.20924 5 4.375V16.875C5 17.0408 5.06585 17.1997 5.18306 17.3169C5.30027 17.4342 5.45924 17.5 5.625 17.5H7.55875V17.5025C7.45213 17.9166 7.48194 18.3541 7.64375 18.75H5.625C5.12772 18.75 4.65081 18.5525 4.29917 18.2008C3.94754 17.8492 3.75 17.3723 3.75 16.875V4.375C3.75 3.87772 3.94754 3.40081 4.29917 3.04917C4.65081 2.69754 5.12772 2.5 5.625 2.5V1.875C5.625 1.70924 5.69085 1.55027 5.80806 1.43306C5.92527 1.31585 6.08424 1.25 6.25 1.25ZM12.5 10C12.6337 10 12.7575 10.0425 12.86 10.1137L11.7225 11.25H7.5C7.33424 11.25 7.17527 11.1842 7.05806 11.0669C6.94085 10.9497 6.875 10.7908 6.875 10.625C6.875 10.4592 6.94085 10.3003 7.05806 10.1831C7.17527 10.0658 7.33424 10 7.5 10H12.5ZM8.745 14.2937C8.72527 14.1433 8.65149 14.0052 8.53741 13.9051C8.42332 13.8051 8.27674 13.7499 8.125 13.75H7.5C7.33424 13.75 7.17527 13.8158 7.05806 13.9331C6.94085 14.0503 6.875 14.2092 6.875 14.375C6.875 14.5408 6.94085 14.6997 7.05806 14.8169C7.17527 14.9342 7.33424 15 7.5 15H8.125C8.19167 15.0002 8.25793 14.9896 8.32125 14.9687C8.4425 14.7325 8.58375 14.5062 8.745 14.2937ZM7.5 6.25C7.33424 6.25 7.17527 6.31585 7.05806 6.43306C6.94085 6.55027 6.875 6.70924 6.875 6.875C6.875 7.04076 6.94085 7.19973 7.05806 7.31694C7.17527 7.43415 7.33424 7.5 7.5 7.5H12.5C12.6658 7.5 12.8247 7.43415 12.9419 7.31694C13.0592 7.19973 13.125 7.04076 13.125 6.875C13.125 6.70924 13.0592 6.55027 12.9419 6.43306C12.8247 6.31585 12.6658 6.25 12.5 6.25H7.5ZM15.4225 9.31875C15.7883 8.95292 16.2845 8.74739 16.8019 8.74739C17.3192 8.74739 17.8154 8.95292 18.1812 9.31875C18.5471 9.68458 18.7526 10.1808 18.7526 10.6981C18.7526 11.2155 18.5471 11.7117 18.1812 12.0775L12.82 17.4375C12.3752 17.8826 11.8179 18.1984 11.2075 18.3512L9.69375 18.73C9.56595 18.762 9.43204 18.7604 9.30506 18.7253C9.17808 18.6901 9.06237 18.6227 8.9692 18.5295C8.87604 18.4364 8.80861 18.3207 8.77348 18.1937C8.73835 18.0667 8.73672 17.9328 8.76875 17.805L9.14875 16.2925C9.30125 15.6812 9.61625 15.1237 10.0612 14.68L15.4225 9.31875Z" fill="black"/>
</svg>
